<?xml version="1.0" encoding="UTF-8" standalone="no"?>
<svg
   xmlns:dc="http://purl.org/dc/elements/1.1/"
   xmlns:cc="http://creativecommons.org/ns#"
   xmlns:rdf="http://www.w3.org/1999/02/22-rdf-syntax-ns#"
   xmlns:svg="http://www.w3.org/2000/svg"
   xmlns="http://www.w3.org/2000/svg"
   xmlns:xlink="http://www.w3.org/1999/xlink"
   xmlns:sodipodi="http://sodipodi.sourceforge.net/DTD/sodipodi-0.dtd"
   xmlns:inkscape="http://www.inkscape.org/namespaces/inkscape"
   version="1.1"
   width="128"
   height="128"
   id="svg3172"
   sodipodi:docname="document-settings-symbolic.svg"
   inkscape:version="0.92.3 (2405546, 2018-03-11)">
  <sodipodi:namedview
     pagecolor="#ffffff"
     bordercolor="#666666"
     borderopacity="1"
     objecttolerance="10"
     gridtolerance="10"
     guidetolerance="10"
     inkscape:pageopacity="0"
     inkscape:pageshadow="2"
     inkscape:window-width="2640"
     inkscape:window-height="1458"
     id="namedview78"
     showgrid="false"
     inkscape:zoom="14.75"
     inkscape:cx="57.72792"
     inkscape:cy="46.870399"
     inkscape:window-x="0"
     inkscape:window-y="30"
     inkscape:window-maximized="0"
     inkscape:current-layer="svg3172">
    <inkscape:grid
       type="xygrid"
       id="grid885" />
  </sodipodi:namedview>
  <defs
     id="defs3174">
    <linearGradient
       id="linearGradient3600">
      <stop
         id="stop3602"
         style="stop-color:#f4f4f4;stop-opacity:1"
         offset="0" />
      <stop
         id="stop3604"
         style="stop-color:#dbdbdb;stop-opacity:1"
         offset="1" />
    </linearGradient>
    <linearGradient
       id="linearGradient3702-501-757-486">
      <stop
         id="stop3100"
         style="stop-color:#181818;stop-opacity:0"
         offset="0" />
      <stop
         id="stop3102"
         style="stop-color:#181818;stop-opacity:1"
         offset="0.5" />
      <stop
         id="stop3104"
         style="stop-color:#181818;stop-opacity:0"
         offset="1" />
    </linearGradient>
    <linearGradient
       id="linearGradient3688-464-309-255">
      <stop
         id="stop3094"
         style="stop-color:#181818;stop-opacity:1"
         offset="0" />
      <stop
         id="stop3096"
         style="stop-color:#181818;stop-opacity:0"
         offset="1" />
    </linearGradient>
    <linearGradient
       x1="25.132275"
       y1="0.98520643"
       x2="25.132275"
       y2="47.013336"
       id="linearGradient3019-2"
       xlink:href="#linearGradient3600"
       gradientUnits="userSpaceOnUse"
       gradientTransform="matrix(2.6285655,0,0,2.5204893,0.914429,-4.3579715)" />
    <linearGradient
       x1="23.99999"
       y1="5.5641499"
       x2="23.99999"
       y2="42.194839"
       id="linearGradient3016-9"
       xlink:href="#linearGradient3977-3"
       gradientUnits="userSpaceOnUse"
       gradientTransform="matrix(2.4594595,0,0,3.1081081,4.9729852,-14.594554)" />
    <linearGradient
       id="linearGradient3977-3">
      <stop
         id="stop3979-6"
         style="stop-color:#ffffff;stop-opacity:1"
         offset="0" />
      <stop
         id="stop3981-0"
         style="stop-color:#ffffff;stop-opacity:0.23529412"
         offset="0.00648027" />
      <stop
         id="stop3983-6"
         style="stop-color:#ffffff;stop-opacity:0.15686275"
         offset="0.99423188" />
      <stop
         id="stop3985-2"
         style="stop-color:#ffffff;stop-opacity:0.39215687"
         offset="1" />
    </linearGradient>
    <linearGradient
       x1="-51.786404"
       y1="50.786446"
       x2="-51.786404"
       y2="2.9062471"
       id="linearGradient3148"
       xlink:href="#linearGradient3104-6"
       gradientUnits="userSpaceOnUse"
       gradientTransform="matrix(2.1456297,0,0,2.3791292,158.08983,-7.746462)" />
    <linearGradient
       id="linearGradient3104-6">
      <stop
         id="stop3106-3"
         style="stop-color:#000000;stop-opacity:0.31782946"
         offset="0" />
      <stop
         id="stop3108-9"
         style="stop-color:#000000;stop-opacity:0.24031007"
         offset="1" />
    </linearGradient>
    <linearGradient
       gradientUnits="userSpaceOnUse"
       xlink:href="#linearGradient3702-501-757-486"
       id="linearGradient4097"
       y2="39.999443"
       x2="25.058096"
       y1="47.027729"
       x1="25.058096"
       gradientTransform="matrix(2.8421052,0,0,0.71428566,-4.2105336,87.430066)" />
    <radialGradient
       gradientTransform="matrix(5.6949649,0,0,0.99999992,-52.665305,-162.00149)"
       gradientUnits="userSpaceOnUse"
       xlink:href="#linearGradient3688-464-309-255"
       id="radialGradient4095"
       fy="43.5"
       fx="4.9929786"
       r="2.5"
       cy="43.5"
       cx="4.9929786" />
    <radialGradient
       gradientTransform="matrix(5.6949649,0,0,0.99999992,75.334676,75.001496)"
       gradientUnits="userSpaceOnUse"
       xlink:href="#linearGradient3688-464-309-255"
       id="radialGradient4093"
       fy="43.5"
       fx="4.9929786"
       r="2.5"
       cy="43.5"
       cx="4.9929786" />
    <radialGradient
       r="3.5"
       fy="39.464806"
       fx="7"
       cy="39.464806"
       cx="7"
       gradientTransform="matrix(0,-0.89962666,0.93506368,0,-81.62938,-32.204086)"
       gradientUnits="userSpaceOnUse"
       id="radialGradient3159"
       xlink:href="#linearGradient5060-5" />
    <linearGradient
       id="linearGradient5060-5">
      <stop
         offset="0"
         style="stop-color:#000000;stop-opacity:1"
         id="stop5062-5" />
      <stop
         offset="1"
         style="stop-color:#000000;stop-opacity:0"
         id="stop5064-3" />
    </linearGradient>
    <radialGradient
       r="3.5"
       fy="39.464806"
       fx="7"
       cy="39.464806"
       cx="7"
       gradientTransform="matrix(0,-0.89962666,0.93506368,0,-33.629364,44.798864)"
       gradientUnits="userSpaceOnUse"
       id="radialGradient3157"
       xlink:href="#linearGradient5060-5" />
    <linearGradient
       gradientTransform="matrix(1.0133332,0,0,0.89962576,-0.0436346,3.8658836)"
       y2="42.040661"
       x2="18.142136"
       y1="35"
       x1="18.142136"
       gradientUnits="userSpaceOnUse"
       id="linearGradient3161"
       xlink:href="#linearGradient22140" />
    <linearGradient
       id="linearGradient22140">
      <stop
         offset="0"
         style="stop-color:#000000;stop-opacity:0"
         id="stop22142" />
      <stop
         offset="0.5"
         style="stop-color:#000000;stop-opacity:1"
         id="stop22148" />
      <stop
         offset="1"
         style="stop-color:#000000;stop-opacity:0"
         id="stop22144" />
    </linearGradient>
    <linearGradient
       y2="50.73642"
       x2="45.902721"
       y1="35.285313"
       x1="30.739399"
       gradientTransform="matrix(0,5.4100631,-5.3070628,0,309.7614,-121.83734)"
       gradientUnits="userSpaceOnUse"
       id="linearGradient3163"
       xlink:href="#linearGradient3412" />
    <linearGradient
       id="linearGradient3412">
      <stop
         offset="0"
         style="stop-color:#f0f0f1;stop-opacity:1"
         id="stop3414" />
      <stop
         offset="1"
         style="stop-color:#cbcdd9;stop-opacity:1"
         id="stop3416" />
    </linearGradient>
    <linearGradient
       y2="127.03607"
       x2="75.779678"
       y1="86"
       x1="75.779678"
       gradientTransform="matrix(-2,0,0,2.0008421,236.50002,-127.60767)"
       gradientUnits="userSpaceOnUse"
       id="linearGradient3165"
       xlink:href="#linearGradient6240" />
    <linearGradient
       id="linearGradient6240">
      <stop
         offset="0"
         style="stop-color:#ffffff;stop-opacity:1"
         id="stop6242" />
      <stop
         offset="1"
         style="stop-color:#ffffff;stop-opacity:0"
         id="stop6244" />
    </linearGradient>
    <linearGradient
       gradientTransform="matrix(2.6571407,0,0,2.6479618,-3.995257,-7.610255)"
       gradientUnits="userSpaceOnUse"
       xlink:href="#linearGradient3104-5"
       id="linearGradient3046"
       y2="3.3638515"
       x2="22.004084"
       y1="47.813133"
       x1="22.004084" />
    <linearGradient
       id="linearGradient3104-5">
      <stop
         offset="0"
         style="stop-color:#aaaaaa;stop-opacity:1"
         id="stop3106-2" />
      <stop
         offset="1"
         style="stop-color:#c8c8c8;stop-opacity:1"
         id="stop3108-5" />
    </linearGradient>
  </defs>
  <metadata
     id="metadata3177">
    <rdf:RDF>
      <cc:Work
         rdf:about="">
        <dc:format>image/svg+xml</dc:format>
        <dc:type
           rdf:resource="http://purl.org/dc/dcmitype/StillImage" />
        <dc:title />
      </cc:Work>
    </rdf:RDF>
  </metadata>
  <g
     id="g978"
     style="opacity:0.2;stroke-width:1.03923047"
     transform="matrix(0.92592591,0,0,1,4.7407489,0)">
    <rect
       style="fill:url(#radialGradient4093);fill-opacity:1;stroke:none;stroke-width:1.48070288"
       id="rect2801"
       y="116.00149"
       x="103.78947"
       height="4.9999995"
       width="14.210526" />
    <rect
       style="fill:url(#radialGradient4095);fill-opacity:1;stroke:none;stroke-width:1.48070288"
       id="rect3696"
       transform="scale(-1)"
       y="-121.00149"
       x="-24.210518"
       height="4.9999995"
       width="14.210526" />
    <rect
       style="fill:url(#linearGradient4097);fill-opacity:1;stroke:none;stroke-width:1.48070288"
       id="rect3700"
       y="116.00149"
       x="24.210518"
       height="5"
       width="79.578949" />
  </g>
  <path
     style="color:#000000;font-style:normal;font-variant:normal;font-weight:normal;font-stretch:normal;font-size:medium;line-height:normal;font-family:sans-serif;font-variant-ligatures:normal;font-variant-position:normal;font-variant-caps:normal;font-variant-numeric:normal;font-variant-alternates:normal;font-feature-settings:normal;text-indent:0;text-align:start;text-decoration:none;text-decoration-line:none;text-decoration-style:solid;text-decoration-color:#000000;letter-spacing:normal;word-spacing:normal;text-transform:none;writing-mode:lr-tb;direction:ltr;text-orientation:mixed;dominant-baseline:auto;baseline-shift:baseline;text-anchor:start;white-space:normal;shape-padding:0;clip-rule:nonzero;display:inline;overflow:visible;visibility:visible;opacity:1;isolation:auto;mix-blend-mode:normal;color-interpolation:sRGB;color-interpolation-filters:linearRGB;solid-color:#000000;solid-opacity:1;vector-effect:none;fill:#0e141f;fill-opacity:1;fill-rule:nonzero;stroke:none;stroke-width:1;stroke-linecap:round;stroke-linejoin:round;stroke-miterlimit:4;stroke-dasharray:none;stroke-dashoffset:0;stroke-opacity:1;color-rendering:auto;image-rendering:auto;shape-rendering:auto;text-rendering:auto;enable-background:accumulate"
     d="m 18,1.5 0.0078,0.00781 A 0.50005,0.50005 0 0 0 17.5,1.9980469 V 2 118 a 0.50005,0.50005 0 0 0 0.5,0.5 h 92 a 0.50005,0.50005 0 0 0 0.5,-0.5 V 2.0078125 a 0.50005,0.50005 0 0 0 -0.5,-0.5 C 110,1.5078125 39.081988,1.5 18,1.5 Z m 0.5,1 c 21.384902,7.42e-5 90.24106,0.00774 91,0.00781 V 117.5 h -91 z"
     id="path4160"
     inkscape:connector-curvature="0" />
  <path
     style="color:#000000;font-style:normal;font-variant:normal;font-weight:normal;font-stretch:normal;font-size:medium;line-height:normal;font-family:sans-serif;font-variant-ligatures:normal;font-variant-position:normal;font-variant-caps:normal;font-variant-numeric:normal;font-variant-alternates:normal;font-feature-settings:normal;text-indent:0;text-align:start;text-decoration:none;text-decoration-line:none;text-decoration-style:solid;text-decoration-color:#000000;letter-spacing:normal;word-spacing:normal;text-transform:none;writing-mode:lr-tb;direction:ltr;text-orientation:mixed;dominant-baseline:auto;baseline-shift:baseline;text-anchor:start;white-space:normal;shape-padding:0;clip-rule:nonzero;display:inline;overflow:visible;visibility:visible;opacity:1;isolation:auto;mix-blend-mode:normal;color-interpolation:sRGB;color-interpolation-filters:linearRGB;solid-color:#000000;solid-opacity:1;vector-effect:none;fill:#0e141f;fill-opacity:1;fill-rule:nonzero;stroke:none;stroke-width:1px;stroke-linecap:butt;stroke-linejoin:miter;stroke-miterlimit:4;stroke-dasharray:none;stroke-dashoffset:0;stroke-opacity:1;color-rendering:auto;image-rendering:auto;shape-rendering:auto;text-rendering:auto;enable-background:accumulate"
     d="m 30.5,22 v 1 h 6.228516 v -1 z m 7.140625,0 v 1 h 5.8125 v -1 z m 6.726563,0 v 1 h 5.148437 v -1 z m 5.978515,0 v 1 h 2.242188 V 22 Z M 53.5,22 v 1 h 4.982422 v -1 z m 5.978516,0 v 1 h 13.121093 v -1 z m 13.951172,0 v 1 h 10.046874 v -1 z m 10.876953,0 v 1 h 3.072265 V 22 Z M 30.5,28 v 1 h 9.714844 v -1 z m 10.794922,0 v 1 h 4.65039 v -1 z m 5.480469,0 v 1 h 2.324218 v -1 z m 3.238281,0 v 1 h 4.234375 v -1 z m 5.148437,0 v 1 h 4.316407 v -1 z m 5.148438,0 v 1 h 6.890625 v -1 z m 7.804687,0 v 1 h 8.966797 v -1 z m 9.798828,0 v 1 h 5.978516 v -1 z m 6.808594,0 v 1 h 1.494141 V 28 Z M 30.5,33.958984 v 1 h 8.220703 v -1 z m 9.050781,0 v 1 h 13.451172 v -1 z m 14.283203,0 v 1 h 6.558594 v -1 z m 7.388672,0 v 1 h 6.144532 v -1 z m 6.97461,0 v 1 h 5.232422 v -1 z m 6.068359,0 -0.01172,1 8.220703,0.08203 0.0098,-1 z m 8.962891,0.08203 v 1 h 13.367187 v -1 z M 30.5,40 v 1 h 11.375 v -1 z m 12.289062,0 v 1 h 12.289063 v -1 z m 13.119141,0 v 1 h 4.900391 v -1 z m 5.730469,0 v 1 h 11.541016 v -1 z m 12.289062,0 v 1 h 7.888672 v -1 z m 8.800782,0 v 1 h 3.15625 v -1 z m 3.986328,0 v 1 h 1.74414 v -1 z m 2.658203,0 v 1 h 4.898437 V 40 Z M 30.5,46 v 1 h 4.234375 v -1 z m 5.5625,0 v 1 H 51.757812 V 46 Z M 30.5,56 v 1 h 6.228516 v -1 z m 7.140625,0 v 1 h 5.730469 v -1 z m 6.726563,0 v 1 h 5.148437 v -1 z m 5.978515,0 v 1 h 2.242188 V 56 Z M 53.5,56 v 1 h 4.982422 v -1 z m 5.978516,0 v 1 h 13.037109 v -1 z m 13.951172,0 v 1 h 9.964843 v -1 z m 10.794921,0 v 1 h 3.154297 v -1 z m 3.984375,0 v 1 h 7.47461 V 56 Z M 30.5,62 v 1 h 10.462891 v -1 z m 11.292969,0 v 1 h 11.208984 v -1 z m 12.041015,0 v 1 h 4.316407 v -1 z m 5.146485,0 v 1 h 10.546875 v -1 z m 11.376953,0 v 1 h 13.285156 v -1 z m 14.199219,0 v 1 h 4.898437 V 62 Z M 30.5,68 v 1 h 11.375 v -1 z m 12.289062,0 v 1 h 12.289063 v -1 z m 13.119141,0 v 1 h 4.900391 v -1 z m 5.730469,0 v 1 h 11.541016 v -1 z m 12.289062,0 v 1 h 7.888672 v -1 z m 8.800782,0 v 1 h 3.15625 v -1 z m 3.986328,0 v 1 h 1.74414 v -1 z m 2.658203,0 v 1 h 4.898437 V 68 Z M 30.5,74 v 1 h 9.714844 v -1 z m 10.794922,0 v 1 h 4.65039 v -1 z m 5.480469,0 v 1 h 2.324218 v -1 z m 3.238281,0 v 1 h 4.234375 v -1 z m 5.148437,0 v 1 h 4.316407 v -1 z m 5.148438,0 v 1 h 6.890625 v -1 z m 7.804687,0 v 1 h 8.966797 v -1 z m 9.798828,0 v 1 h 5.978516 v -1 z m 6.808594,0 v 1 h 1.494141 V 74 Z M 30.5,83.958984 v 1 h 8.220703 v -1 z m 9.050781,0 v 1 h 13.451172 v -1 z m 14.283203,0 v 1 h 6.558594 v -1 z m 7.388672,0 v 1 h 6.144532 v -1 z m 6.97461,0 v 1 h 5.232422 v -1 z m 6.068359,0 -0.01172,1 8.220703,0.08203 0.0098,-1 z m 8.962891,0.08203 v 1 h 13.367187 v -1 z M 30.5,90 v 1 h 9.714844 v -1 z m 10.794922,0 v 1 h 4.65039 v -1 z m 5.480469,0 v 1 h 2.324218 v -1 z m 3.238281,0 v 1 h 4.234375 v -1 z m 5.148437,0 v 1 h 4.316407 v -1 z m 5.148438,0 v 1 h 6.890625 v -1 z m 7.804687,0 v 1 h 8.966797 v -1 z m 9.798828,0 v 1 h 5.978516 v -1 z m 6.808594,0 v 1 h 1.494141 V 90 Z M 30.5,96 v 1 h 10.296875 v -1 z m 11.208984,0 v 1 h 3.238282 v -1 z m 4.070313,0 v 1 h 7.388672 V 96 Z M 54,96 v 1 h 10.876953 v -1 z m 11.791016,0 v 1 h 7.388672 v -1 z m 8.136718,0 v 1 h 1.578125 v -1 z m 2.408204,0 v 1 h 9.382812 v -1 z m 10.378906,0 v 1 h 4.898437 V 96 Z M 30.5,102 v 1 h 10.296875 v -1 z m 11.208984,0 v 1 h 4.650391 v -1 z m 5.480469,0 v 1 h 7.308594 v -1 z m 8.138672,0 v 1 h 7.888672 v -1 z m 8.800781,0 v 1 h 3.15625 v -1 z m 3.986328,0 v 1 h 1.744141 v -1 z m 2.65625,0 v 1 h 4.900391 v -1 z"
     id="path3475"
     inkscape:connector-curvature="0" />
  <path
     inkscape:connector-curvature="0"
     style="display:inline;overflow:visible;visibility:visible;opacity:1;fill:#0e141f;fill-opacity:1;fill-rule:evenodd;stroke:#0e141f;stroke-width:1px;stroke-linecap:butt;stroke-linejoin:miter;stroke-miterlimit:4;stroke-dasharray:none;stroke-dashoffset:0;stroke-opacity:1;marker:none;enable-background:accumulate"
     id="path2993"
     d="M 121.50004,45.207214 41.212776,125.5 121.50004,125.499 Z m -16,37.002288 v 27.290538 l -27.295082,-8e-5 z" />
  <path
     inkscape:connector-curvature="0"
     style="opacity:1;fill:#0e141f;fill-opacity:1;stroke:#0e141f;stroke-width:0.99999994;stroke-linecap:round;stroke-linejoin:miter;stroke-opacity:1"
     id="path3103"
     d="m 98.500032,124.49288 v -2.98929" />
  <path
     inkscape:connector-curvature="0"
     style="opacity:1;fill:#0e141f;fill-opacity:1;stroke:#0e141f;stroke-width:1.00000012px;stroke-linecap:round;stroke-linejoin:miter;stroke-opacity:1"
     id="path3091"
     d="m 109.50003,125.49882 v -4.00168 m -11.999998,4.00168 v -4.00168 m -12,4.00168 v -3.95406 m -12,3.95406 v -4.00168 m -12,4.00168 v -4.00168" />
  <path
     style="color:#000000;font-style:normal;font-variant:normal;font-weight:normal;font-stretch:normal;font-size:medium;line-height:normal;font-family:sans-serif;font-variant-ligatures:normal;font-variant-position:normal;font-variant-caps:normal;font-variant-numeric:normal;font-variant-alternates:normal;font-feature-settings:normal;text-indent:0;text-align:start;text-decoration:none;text-decoration-line:none;text-decoration-style:solid;text-decoration-color:#000000;letter-spacing:normal;word-spacing:normal;text-transform:none;writing-mode:lr-tb;direction:ltr;text-orientation:mixed;dominant-baseline:auto;baseline-shift:baseline;text-anchor:start;white-space:normal;shape-padding:0;clip-rule:nonzero;display:inline;overflow:visible;visibility:visible;opacity:1;isolation:auto;mix-blend-mode:normal;color-interpolation:sRGB;color-interpolation-filters:linearRGB;solid-color:#000000;solid-opacity:1;vector-effect:none;fill:#0e141f;fill-opacity:1;fill-rule:nonzero;stroke:none;stroke-width:1px;stroke-linecap:butt;stroke-linejoin:miter;stroke-miterlimit:4;stroke-dasharray:none;stroke-dashoffset:0;stroke-opacity:1;marker:none;color-rendering:auto;image-rendering:auto;shape-rendering:auto;text-rendering:auto;enable-background:accumulate"
     d="M 121,46.408203 120.14648,47.261719 42.419922,125 H 121 Z m -1,2.414063 V 124 H 44.833984 Z M 107,78.583984 106.14648,79.435547 74.572266,111 H 107 Z m -1,2.414063 V 110 H 76.986328 Z"
     id="path3934"
     inkscape:connector-curvature="0" />
  <path
     inkscape:connector-curvature="0"
     d="m 110.50005,124.49288 v -2.98929"
     id="path4292"
     style="opacity:1;fill:#0e141f;fill-opacity:1;stroke:#0e141f;stroke-width:0.99999994;stroke-linecap:round;stroke-linejoin:miter;stroke-opacity:1" />
  <path
     inkscape:connector-curvature="0"
     d="m 86.50005,124.49288 v -2.98929"
     id="path4294"
     style="opacity:1;fill:#0e141f;fill-opacity:1;stroke:#0e141f;stroke-width:0.99999994;stroke-linecap:round;stroke-linejoin:miter;stroke-opacity:1" />
  <path
     inkscape:connector-curvature="0"
     style="opacity:1;fill:#0e141f;fill-opacity:1;stroke:#0e141f;stroke-width:0.99999994;stroke-linecap:round;stroke-linejoin:miter;stroke-opacity:1"
     id="path4296"
     d="m 74.50005,124.49288 v -2.98929" />
  <path
     inkscape:connector-curvature="0"
     d="m 62.50005,124.49288 v -2.98929"
     id="path4298"
     style="opacity:1;fill:#0e141f;fill-opacity:1;stroke:#0e141f;stroke-width:0.99999994;stroke-linecap:round;stroke-linejoin:miter;stroke-opacity:1" />
  <path
     inkscape:connector-curvature="0"
     d="m 120.50286,78.499968 h -2.98929"
     id="path4300"
     style="opacity:1;fill:#0e141f;fill-opacity:1;stroke:#0e141f;stroke-width:0.99999994;stroke-linecap:round;stroke-linejoin:miter;stroke-opacity:1" />
  <path
     inkscape:connector-curvature="0"
     d="m 121.5088,65.49995 h -4.00168 m 4.00168,12 h -4.00168 m 4.00168,12 h -3.95406 m 3.95406,12 h -4.00168 m 4.00168,12 h -4.00168"
     id="path4302"
     style="opacity:1;fill:#0e141f;fill-opacity:1;stroke:#0e141f;stroke-width:1.00000012px;stroke-linecap:round;stroke-linejoin:miter;stroke-opacity:1" />
  <path
     inkscape:connector-curvature="0"
     style="opacity:1;fill:#0e141f;fill-opacity:1;stroke:#0e141f;stroke-width:0.99999994;stroke-linecap:round;stroke-linejoin:miter;stroke-opacity:1"
     id="path4304"
     d="m 120.50286,66.49995 h -2.98929" />
  <path
     inkscape:connector-curvature="0"
     style="opacity:1;fill:#0e141f;fill-opacity:1;stroke:#0e141f;stroke-width:0.99999994;stroke-linecap:round;stroke-linejoin:miter;stroke-opacity:1"
     id="path4306"
     d="m 120.50286,90.49995 h -2.98929" />
  <path
     inkscape:connector-curvature="0"
     d="m 120.50286,102.49995 h -2.98929"
     id="path4308"
     style="opacity:1;fill:#0e141f;fill-opacity:1;stroke:#0e141f;stroke-width:0.99999994;stroke-linecap:round;stroke-linejoin:miter;stroke-opacity:1" />
  <path
     inkscape:connector-curvature="0"
     style="opacity:1;fill:#0e141f;fill-opacity:1;stroke:#0e141f;stroke-width:0.99999994;stroke-linecap:round;stroke-linejoin:miter;stroke-opacity:1"
     id="path4310"
     d="m 120.50286,114.49995 h -2.98929" />
</svg>
