<?xml version="1.0" encoding="UTF-8" standalone="no"?>
<svg
   xmlns:serif="http://www.serif.com/"
   xmlns:dc="http://purl.org/dc/elements/1.1/"
   xmlns:cc="http://creativecommons.org/ns#"
   xmlns:rdf="http://www.w3.org/1999/02/22-rdf-syntax-ns#"
   xmlns:svg="http://www.w3.org/2000/svg"
   xmlns="http://www.w3.org/2000/svg"
   xmlns:sodipodi="http://sodipodi.sourceforge.net/DTD/sodipodi-0.dtd"
   xmlns:inkscape="http://www.inkscape.org/namespaces/inkscape"
   width="48"
   height="48"
   viewBox="0 0 6144 6144"
   version="1.1"
   xml:space="preserve"
   style="clip-rule:evenodd;fill-rule:evenodd;stroke-linecap:round;stroke-linejoin:round;stroke-miterlimit:1.5"
   id="svg94"
   sodipodi:docname="com.github.sixpounder.manuscript.svg"
   inkscape:version="0.92.3 (2405546, 2018-03-11)"><metadata
   id="metadata98"><rdf:RDF><cc:Work
       rdf:about=""><dc:format>image/svg+xml</dc:format><dc:type
         rdf:resource="http://purl.org/dc/dcmitype/StillImage" /><dc:title></dc:title></cc:Work></rdf:RDF></metadata><sodipodi:namedview
   pagecolor="#ffffff"
   bordercolor="#666666"
   borderopacity="1"
   objecttolerance="10"
   gridtolerance="10"
   guidetolerance="10"
   inkscape:pageopacity="0"
   inkscape:pageshadow="2"
   inkscape:window-width="2307"
   inkscape:window-height="1113"
   id="namedview96"
   showgrid="false"
   units="px"
   inkscape:zoom="3.6875"
   inkscape:cx="-34.439163"
   inkscape:cy="50.447561"
   inkscape:window-x="2"
   inkscape:window-y="30"
   inkscape:window-maximized="0"
   inkscape:current-layer="exports"
   showborder="true" />
    <g
   transform="matrix(3.1860386,0,0,3.1860386,3790.6164,-2146.5173)"
   id="g59">
        <g
   id="exports"
   transform="translate(0,865)">
            <rect
   x="0"
   y="0"
   width="1280"
   height="800"
   style="fill:none"
   id="rect2" />
            <g
   id="base"
   transform="matrix(13.708113,0,0,12.290036,-9141.7754,-3591.3879)">
                <g
   id="g40">
                    <g
   id="drop-shadow"
   serif:id="drop shadow"
   transform="matrix(1.10599,0,0,1.14286,437.65,145.868)">
                        <g
   id="left"
   transform="matrix(-1.25,0,0,1.125,424,-30.375)">
                            <rect
   x="136"
   y="243"
   width="24"
   height="8"
   style="fill:url(#_Radial1)"
   id="rect4" />
                        </g>
                        <g
   id="left1"
   serif:id="left"
   transform="matrix(1.25,0,0,1.125,-40,-30.375)">
                            <rect
   x="136"
   y="243"
   width="24"
   height="8"
   style="fill:url(#_Radial2)"
   id="rect7" />
                        </g>
                        <g
   id="center"
   transform="matrix(1,0,0,0.75,0,63)">
                            <rect
   x="160"
   y="240"
   width="64"
   height="12"
   style="fill:url(#_Linear3)"
   id="rect10" />
                        </g>
                    </g>
                    <g
   id="background"
   transform="matrix(0.259714,0,0,0.285538,482.115,257.446)">
                        <g
   transform="matrix(0.985701,0,0,1,9.2945,-100)"
   id="g16">
                            <path
   d="M 900,254.154 C 900,224.266 875.734,200 845.846,200 H 454.154 C 424.266,200 400,224.266 400,254.154 V 645.846 C 400,675.734 424.266,700 454.154,700 H 845.846 C 875.734,700 900,675.734 900,645.846 Z"
   style="fill:url(#_Linear4)"
   id="path14"
   inkscape:connector-curvature="0" />
                        </g>
                        <g
   id="border"
   transform="matrix(0.9769,0,0,0.991071,15.0151,-95.9821)">
                            <path
   d="M 900,254.154 C 900.368,223.844 876.152,199.522 845.846,200 H 454.154 c -30.783,-0.227 -55.03,24.043 -54.154,54.154 v 391.692 c -1.324,30.466 22.891,54.753 54.154,54.154 h 391.692 c 30.472,0 54.887,-24.266 54.154,-54.154 z"
   style="fill:none;stroke:#c2cbae;stroke-width:4.5px;stroke-opacity:0.6"
   id="path18"
   inkscape:connector-curvature="0" />
                        </g>
                        <g
   id="outer-stroke"
   serif:id="outer stroke"
   transform="matrix(0.985701,0,0,1,9.2945,-100)">
                            <path
   d="M 900,254.154 C 900,224.266 875.734,200 845.846,200 H 454.154 C 424.266,200 400,224.266 400,254.154 V 645.846 C 400,675.734 424.266,700 454.154,700 H 845.846 C 875.734,700 900,675.734 900,645.846 Z"
   style="fill:none;stroke:url(#_Linear5);stroke-width:4.46000004px"
   id="path21"
   inkscape:connector-curvature="0" />
                        </g>
                    </g>
                    <g
   id="lettering"
   transform="matrix(0.256,0,0,0.256,483.6,268.048)">
                        <g
   transform="matrix(0.913007,0,0,1.20998,32.4852,-109.044)"
   id="g30">
                            <g
   id="lettering1"
   serif:id="lettering">
                                <g
   transform="matrix(335.051,0,0,335.051,493.08,500)"
   id="g27">
                                    <path
   d="m 0.62,-0.049 c 0.004,0.016 0.018,0.026 0.042,0.03 0.006,0.001 0.009,0.004 0.009,0.01 C 0.671,-0.006 0.669,-0.003 0.666,0 0.663,0.003 0.658,0.004 0.653,0.004 0.643,0.004 0.63,0.003 0.613,0.002 0.596,0.001 0.573,0 0.542,0 0.517,0 0.496,0.001 0.477,0.003 0.458,0.004 0.447,0.005 0.443,0.006 0.44,0.006 0.437,0.005 0.436,0.003 0.435,0.001 0.434,-0.001 0.434,-0.004 c 0,-0.003 0.001,-0.005 0.002,-0.008 0,-0.003 0.002,-0.004 0.004,-0.004 C 0.445,-0.017 0.449,-0.018 0.454,-0.02 0.459,-0.022 0.463,-0.025 0.467,-0.028 0.469,-0.03 0.472,-0.041 0.475,-0.06 0.478,-0.079 0.48,-0.105 0.483,-0.137 0.485,-0.168 0.487,-0.205 0.489,-0.246 0.49,-0.287 0.491,-0.331 0.491,-0.377 v -0.108 c 0,-0.033 -0.002,-0.06 -0.005,-0.081 C 0.48,-0.61 0.466,-0.644 0.444,-0.668 0.422,-0.691 0.396,-0.703 0.367,-0.703 c -0.026,0 -0.052,0.007 -0.077,0.021 -0.025,0.015 -0.048,0.036 -0.068,0.063 -0.02,0.028 -0.036,0.063 -0.048,0.103 -0.013,0.042 -0.019,0.088 -0.019,0.141 0,0.058 0.007,0.108 0.02,0.151 0.013,0.043 0.03,0.079 0.051,0.108 0.021,0.029 0.046,0.051 0.074,0.065 0.027,0.015 0.056,0.022 0.086,0.022 h 0.006 c 0.002,0 0.004,0 0.005,-10e-4 0.003,-0.001 0.004,-0.001 0.005,0 0.001,10e-4 0.001,0.003 0,0.005 C 0.401,-0.022 0.401,-0.02 0.4,-0.018 0.399,-0.015 0.397,-0.014 0.396,-0.013 0.389,-0.008 0.38,-0.004 0.368,-0.001 0.356,0.003 0.339,0.005 0.318,0.005 0.283,0.005 0.248,-0.003 0.213,-0.02 0.178,-0.036 0.146,-0.059 0.119,-0.088 0.091,-0.117 0.069,-0.153 0.052,-0.195 0.035,-0.236 0.026,-0.282 0.026,-0.332 c 0,-0.071 0.01,-0.132 0.031,-0.183 0.021,-0.051 0.049,-0.092 0.085,-0.124 0.035,-0.032 0.077,-0.056 0.124,-0.071 0.047,-0.014 0.097,-0.022 0.15,-0.022 0.019,0 0.037,0.002 0.053,0.006 0.016,0.004 0.03,0.009 0.042,0.014 0.012,0.006 0.022,0.012 0.03,0.017 0.007,0.005 0.012,0.009 0.015,0.012 0.005,-0.004 0.016,-0.009 0.033,-0.015 0.016,-0.005 0.034,-0.01 0.056,-0.016 0.021,-0.005 0.042,-0.009 0.065,-0.013 0.023,-0.003 0.043,-0.005 0.062,-0.005 0.051,0.001 0.095,0.01 0.134,0.025 0.038,0.015 0.07,0.036 0.096,0.061 0.025,0.026 0.045,0.056 0.058,0.089 0.013,0.034 0.019,0.07 0.019,0.108 0,0.071 -0.01,0.135 -0.028,0.19 C 1.032,-0.203 1.006,-0.156 0.974,-0.117 0.942,-0.078 0.905,-0.049 0.863,-0.029 0.821,-0.008 0.777,0.002 0.731,0.002 0.727,0.002 0.724,0.001 0.723,-0.003 0.722,-0.006 0.721,-0.009 0.722,-0.012 c 0,-0.003 0.001,-0.006 0.003,-0.009 0.002,-0.002 0.004,-0.003 0.006,-0.002 0.003,0.001 0.006,0.002 0.008,0.002 H 0.747 C 0.774,-0.021 0.8,-0.03 0.824,-0.049 0.848,-0.068 0.869,-0.093 0.887,-0.127 0.905,-0.16 0.919,-0.198 0.93,-0.244 0.94,-0.289 0.945,-0.338 0.945,-0.391 0.945,-0.49 0.93,-0.568 0.9,-0.623 0.869,-0.678 0.822,-0.706 0.759,-0.706 c -0.019,0 -0.037,0.004 -0.054,0.012 -0.017,0.008 -0.031,0.018 -0.043,0.031 -0.013,0.013 -0.023,0.028 -0.03,0.045 -0.008,0.017 -0.013,0.034 -0.015,0.051 -0.003,0.023 -0.005,0.061 -0.006,0.112 -0.001,0.051 -0.001,0.113 -0.002,0.186 -0.001,0.053 0,0.1 0.002,0.139 0.001,0.04 0.004,0.067 0.009,0.081 z"
   style="fill:#ed5353;fill-rule:nonzero"
   id="path25"
   inkscape:connector-curvature="0" />
                                </g>
                            </g>
                        </g>
                        <g
   transform="matrix(0.913007,0,0,1.20998,32.4852,-109.044)"
   id="g37">
                            <g
   id="lettering2"
   serif:id="lettering">
                                <g
   transform="matrix(335.051,0,0,335.051,493.08,500)"
   id="g34">
                                    <path
   d="m 0.62,-0.049 c 0.004,0.016 0.018,0.026 0.042,0.03 0.006,0.001 0.009,0.004 0.009,0.01 C 0.671,-0.006 0.669,-0.003 0.666,0 0.663,0.003 0.658,0.004 0.653,0.004 0.643,0.004 0.63,0.003 0.613,0.002 0.596,0.001 0.573,0 0.542,0 0.517,0 0.496,0.001 0.477,0.003 0.458,0.004 0.447,0.005 0.443,0.006 0.44,0.006 0.437,0.005 0.436,0.003 0.435,0.001 0.434,-0.001 0.434,-0.004 c 0,-0.003 0.001,-0.005 0.002,-0.008 0,-0.003 0.002,-0.004 0.004,-0.004 C 0.445,-0.017 0.449,-0.018 0.454,-0.02 0.459,-0.022 0.463,-0.025 0.467,-0.028 0.469,-0.03 0.472,-0.041 0.475,-0.06 0.478,-0.079 0.48,-0.105 0.483,-0.137 0.485,-0.168 0.487,-0.205 0.489,-0.246 0.49,-0.287 0.491,-0.331 0.491,-0.377 v -0.108 c 0,-0.033 -0.002,-0.06 -0.005,-0.081 C 0.48,-0.61 0.466,-0.644 0.444,-0.668 0.422,-0.691 0.396,-0.703 0.367,-0.703 c -0.026,0 -0.052,0.007 -0.077,0.021 -0.025,0.015 -0.048,0.036 -0.068,0.063 -0.02,0.028 -0.036,0.063 -0.048,0.103 -0.013,0.042 -0.019,0.088 -0.019,0.141 0,0.058 0.007,0.108 0.02,0.151 0.013,0.043 0.03,0.079 0.051,0.108 0.021,0.029 0.046,0.051 0.074,0.065 0.027,0.015 0.056,0.022 0.086,0.022 h 0.006 c 0.002,0 0.004,0 0.005,-10e-4 0.003,-0.001 0.004,-0.001 0.005,0 0.001,10e-4 0.001,0.003 0,0.005 C 0.401,-0.022 0.401,-0.02 0.4,-0.018 0.399,-0.015 0.397,-0.014 0.396,-0.013 0.389,-0.008 0.38,-0.004 0.368,-0.001 0.356,0.003 0.339,0.005 0.318,0.005 0.283,0.005 0.248,-0.003 0.213,-0.02 0.178,-0.036 0.146,-0.059 0.119,-0.088 0.091,-0.117 0.069,-0.153 0.052,-0.195 0.035,-0.236 0.026,-0.282 0.026,-0.332 c 0,-0.071 0.01,-0.132 0.031,-0.183 0.021,-0.051 0.049,-0.092 0.085,-0.124 0.035,-0.032 0.077,-0.056 0.124,-0.071 0.047,-0.014 0.097,-0.022 0.15,-0.022 0.019,0 0.037,0.002 0.053,0.006 0.016,0.004 0.03,0.009 0.042,0.014 0.012,0.006 0.022,0.012 0.03,0.017 0.007,0.005 0.012,0.009 0.015,0.012 0.005,-0.004 0.016,-0.009 0.033,-0.015 0.016,-0.005 0.034,-0.01 0.056,-0.016 0.021,-0.005 0.042,-0.009 0.065,-0.013 0.023,-0.003 0.043,-0.005 0.062,-0.005 0.051,0.001 0.095,0.01 0.134,0.025 0.038,0.015 0.07,0.036 0.096,0.061 0.025,0.026 0.045,0.056 0.058,0.089 0.013,0.034 0.019,0.07 0.019,0.108 0,0.071 -0.01,0.135 -0.028,0.19 C 1.032,-0.203 1.006,-0.156 0.974,-0.117 0.942,-0.078 0.905,-0.049 0.863,-0.029 0.821,-0.008 0.777,0.002 0.731,0.002 0.727,0.002 0.724,0.001 0.723,-0.003 0.722,-0.006 0.721,-0.009 0.722,-0.012 c 0,-0.003 0.001,-0.006 0.003,-0.009 0.002,-0.002 0.004,-0.003 0.006,-0.002 0.003,0.001 0.006,0.002 0.008,0.002 H 0.747 C 0.774,-0.021 0.8,-0.03 0.824,-0.049 0.848,-0.068 0.869,-0.093 0.887,-0.127 0.905,-0.16 0.919,-0.198 0.93,-0.244 0.94,-0.289 0.945,-0.338 0.945,-0.391 0.945,-0.49 0.93,-0.568 0.9,-0.623 0.869,-0.678 0.822,-0.706 0.759,-0.706 c -0.019,0 -0.037,0.004 -0.054,0.012 -0.017,0.008 -0.031,0.018 -0.043,0.031 -0.013,0.013 -0.023,0.028 -0.03,0.045 -0.008,0.017 -0.013,0.034 -0.015,0.051 -0.003,0.023 -0.005,0.061 -0.006,0.112 -0.001,0.051 -0.001,0.113 -0.002,0.186 -0.001,0.053 0,0.1 0.002,0.139 0.001,0.04 0.004,0.067 0.009,0.081 z"
   style="fill:#ed5353;fill-rule:nonzero"
   id="path32"
   inkscape:connector-curvature="0" />
                                </g>
                            </g>
                        </g>
                    </g>
                </g>
            </g>
            <g
   id="base1"
   serif:id="base"
   transform="matrix(0.466667,0,0,0.418391,15.224,170.407)">
                <g
   id="drop-shadow1"
   serif:id="drop shadow">
                </g>
                <g
   id="background1"
   serif:id="background">
                </g>
            </g>
            <g
   id="base2"
   serif:id="base"
   transform="matrix(0.35,0,0,0.313793,221.192,208.055)">
                <g
   id="drop-shadow2"
   serif:id="drop shadow">
                </g>
                <g
   id="background2"
   serif:id="background">
                </g>
            </g>
            <g
   id="base3"
   serif:id="base"
   transform="matrix(0.175,0,0,0.156897,461.062,264.528)">
                <g
   id="drop-shadow3"
   serif:id="drop shadow">
                </g>
                <g
   id="background3"
   serif:id="background">
                </g>
            </g>
            <g
   id="base4"
   serif:id="base"
   transform="matrix(0.116667,0,0,0.104598,633.067,283.601)">
                <g
   id="drop-shadow4"
   serif:id="drop shadow">
                </g>
                <g
   id="background4"
   serif:id="background">
                </g>
            </g>
            <g
   id="inverted"
   transform="matrix(0.875,0,0,0.875,-376.75,141.75)">
                <g
   id="drop-shadow5"
   serif:id="drop shadow">
                </g>
                <g
   id="background5"
   serif:id="background">
                </g>
            </g>
        </g>
    </g>
    <defs
   id="defs92">
        <radialGradient
   id="_Radial1"
   cx="0"
   cy="0"
   r="1"
   gradientUnits="userSpaceOnUse"
   gradientTransform="matrix(-24,0,0,-3.84,160,247.16)"><stop
     offset="0"
     style="stop-color:rgb(224,224,224);stop-opacity:0.6"
     id="stop61" /><stop
     offset="1"
     style="stop-color:rgb(179,179,179);stop-opacity:0"
     id="stop63" /></radialGradient>
        <radialGradient
   id="_Radial2"
   cx="0"
   cy="0"
   r="1"
   gradientUnits="userSpaceOnUse"
   gradientTransform="matrix(-24,0,0,-3.84,160,247.16)"><stop
     offset="0"
     style="stop-color:rgb(224,224,224);stop-opacity:0.6"
     id="stop66" /><stop
     offset="1"
     style="stop-color:rgb(179,179,179);stop-opacity:0"
     id="stop68" /></radialGradient>
        <linearGradient
   id="_Linear3"
   x1="0"
   y1="0"
   x2="1"
   y2="0"
   gradientUnits="userSpaceOnUse"
   gradientTransform="matrix(0,12,-9,0,192,240)"><stop
     offset="0"
     style="stop-color:white;stop-opacity:0"
     id="stop71" /><stop
     offset="0.5"
     style="stop-color:rgb(224,224,224);stop-opacity:0.6"
     id="stop73" /><stop
     offset="1"
     style="stop-color:rgb(179,179,179);stop-opacity:0"
     id="stop75" /></linearGradient>
        <linearGradient
   id="_Linear4"
   x1="0"
   y1="0"
   x2="1"
   y2="0"
   gradientUnits="userSpaceOnUse"
   gradientTransform="matrix(0,500,-500,0,645.756,200)"><stop
     offset="0"
     style="stop-color:rgb(240,242,235);stop-opacity:1"
     id="stop78" /><stop
     offset="0.64"
     style="stop-color:rgb(236,239,230);stop-opacity:1"
     id="stop80" /><stop
     offset="0.84"
     style="stop-color:rgb(227,231,217);stop-opacity:1"
     id="stop82" /><stop
     offset="1"
     style="stop-color:rgb(216,221,203);stop-opacity:1"
     id="stop84" /></linearGradient>
        <linearGradient
   id="_Linear5"
   x1="0"
   y1="0"
   x2="1"
   y2="0"
   gradientUnits="userSpaceOnUse"
   gradientTransform="matrix(0,495.536,-495.536,0,658.929,200)"><stop
     offset="0"
     style="stop-color:rgb(169,170,168);stop-opacity:0.6"
     id="stop87" /><stop
     offset="1"
     style="stop-color:rgb(151,151,151);stop-opacity:0.6"
     id="stop89" /></linearGradient>
    </defs>
</svg>