<?xml version="1.0" encoding="UTF-8" standalone="no"?>
<svg
   xmlns:dc="http://purl.org/dc/elements/1.1/"
   xmlns:cc="http://creativecommons.org/ns#"
   xmlns:rdf="http://www.w3.org/1999/02/22-rdf-syntax-ns#"
   xmlns:svg="http://www.w3.org/2000/svg"
   xmlns="http://www.w3.org/2000/svg"
   xmlns:xlink="http://www.w3.org/1999/xlink"
   xmlns:sodipodi="http://sodipodi.sourceforge.net/DTD/sodipodi-0.dtd"
   xmlns:inkscape="http://www.inkscape.org/namespaces/inkscape"
   version="1.1"
   width="24"
   height="24"
   id="svg3172"
   sodipodi:docname="application-x-manuscript.svg"
   inkscape:version="0.92.3 (2405546, 2018-03-11)">
  <sodipodi:namedview
     pagecolor="#ffffff"
     bordercolor="#666666"
     borderopacity="1"
     objecttolerance="10"
     gridtolerance="10"
     guidetolerance="10"
     inkscape:pageopacity="0"
     inkscape:pageshadow="2"
     inkscape:window-width="3314"
     inkscape:window-height="1747"
     id="namedview40"
     showgrid="false"
     inkscape:zoom="5.6568543"
     inkscape:cx="-52.837336"
     inkscape:cy="85.724113"
     inkscape:window-x="216"
     inkscape:window-y="78"
     inkscape:window-maximized="0"
     inkscape:current-layer="g4137">
    <inkscape:grid
       type="xygrid"
       id="grid4572" />
  </sodipodi:namedview>
  <defs
     id="defs3174">
    <linearGradient
       id="linearGradient3600">
      <stop
         id="stop3602"
         style="stop-color:#f4f4f4;stop-opacity:1"
         offset="0" />
      <stop
         id="stop3604"
         style="stop-color:#dbdbdb;stop-opacity:1"
         offset="1" />
    </linearGradient>
    <linearGradient
       id="linearGradient3702-501-757-486">
      <stop
         id="stop3100"
         style="stop-color:#181818;stop-opacity:0"
         offset="0" />
      <stop
         id="stop3102"
         style="stop-color:#181818;stop-opacity:1"
         offset="0.5" />
      <stop
         id="stop3104"
         style="stop-color:#181818;stop-opacity:0"
         offset="1" />
    </linearGradient>
    <linearGradient
       id="linearGradient3688-464-309-255">
      <stop
         id="stop3094"
         style="stop-color:#181818;stop-opacity:1"
         offset="0" />
      <stop
         id="stop3096"
         style="stop-color:#181818;stop-opacity:0"
         offset="1" />
    </linearGradient>
    <linearGradient
       x1="25.132275"
       y1="0.98520643"
       x2="25.132275"
       y2="47.013336"
       id="linearGradient3019-2"
       xlink:href="#linearGradient3600"
       gradientUnits="userSpaceOnUse"
       gradientTransform="matrix(0.35558743,0,0,0.34096708,3.7445267,0.04309445)" />
    <linearGradient
       x1="23.99999"
       y1="5.5641499"
       x2="23.99999"
       y2="42.194839"
       id="linearGradient3016-9"
       xlink:href="#linearGradient3977-3"
       gradientUnits="userSpaceOnUse"
       gradientTransform="matrix(0.33271108,0,0,0.42045905,4.2935607,-1.341691)" />
    <linearGradient
       id="linearGradient3977-3">
      <stop
         id="stop3979-6"
         style="stop-color:#ffffff;stop-opacity:1"
         offset="0" />
      <stop
         id="stop3981-0"
         style="stop-color:#ffffff;stop-opacity:0.23529412"
         offset="0.00648027" />
      <stop
         id="stop3983-6"
         style="stop-color:#ffffff;stop-opacity:0.15686275"
         offset="0.99423188" />
      <stop
         id="stop3985-2"
         style="stop-color:#ffffff;stop-opacity:0.39215687"
         offset="1" />
    </linearGradient>
    <linearGradient
       x1="-51.786404"
       y1="50.786446"
       x2="-51.786404"
       y2="2.9062471"
       id="linearGradient3148"
       xlink:href="#linearGradient3104-6"
       gradientUnits="userSpaceOnUse"
       gradientTransform="matrix(0.29025677,0,0,0.32184415,25.006922,-0.41529414)" />
    <linearGradient
       id="linearGradient3104-6">
      <stop
         id="stop3106-3"
         style="stop-color:#000000;stop-opacity:0.31782946"
         offset="0" />
      <stop
         id="stop3108-9"
         style="stop-color:#000000;stop-opacity:0.24031007"
         offset="1" />
    </linearGradient>
    <linearGradient
       gradientUnits="userSpaceOnUse"
       xlink:href="#linearGradient3702-501-757-486"
       id="linearGradient4097"
       y2="39.999443"
       x2="25.058096"
       y1="47.027729"
       x1="25.058096"
       gradientTransform="matrix(2.8421052,0,0,0.71428566,-4.2105336,87.430066)" />
    <radialGradient
       gradientTransform="matrix(5.6949649,0,0,0.99999992,-52.665305,-162.00149)"
       gradientUnits="userSpaceOnUse"
       xlink:href="#linearGradient3688-464-309-255"
       id="radialGradient4095"
       fy="43.5"
       fx="4.9929786"
       r="2.5"
       cy="43.5"
       cx="4.9929786" />
    <radialGradient
       gradientTransform="matrix(5.6949649,0,0,0.99999992,75.334676,75.001496)"
       gradientUnits="userSpaceOnUse"
       xlink:href="#linearGradient3688-464-309-255"
       id="radialGradient4093"
       fy="43.5"
       fx="4.9929786"
       r="2.5"
       cy="43.5"
       cx="4.9929786" />
  </defs>
  <metadata
     id="metadata3177">
    <rdf:RDF>
      <cc:Work
         rdf:about="">
        <dc:format>image/svg+xml</dc:format>
        <dc:type
           rdf:resource="http://purl.org/dc/dcmitype/StillImage" />
        <dc:title></dc:title>
      </cc:Work>
    </rdf:RDF>
  </metadata>
  <g
     id="g978"
     style="opacity:0.2;stroke-width:1.03923047"
     transform="matrix(0.12525753,0,0,0.13527813,4.2621447,0.63263246)">
    <rect
       style="fill:url(#radialGradient4093);fill-opacity:1;stroke:none;stroke-width:1.48070288"
       id="rect2801"
       y="116.00149"
       x="103.78947"
       height="4.9999995"
       width="14.210526" />
    <rect
       style="fill:url(#radialGradient4095);fill-opacity:1;stroke:none;stroke-width:1.48070288"
       id="rect3696"
       transform="scale(-1)"
       y="-121.00149"
       x="-24.210518"
       height="4.9999995"
       width="14.210526" />
    <rect
       style="fill:url(#linearGradient4097);fill-opacity:1;stroke:none;stroke-width:1.48070288"
       id="rect3700"
       y="116.00149"
       x="24.210518"
       height="5"
       width="79.578949" />
  </g>
  <path
     d="m 6.0558317,0.9032496 c 2.851917,0 12.4455733,9.4695e-4 12.4455733,9.4695e-4 l 1.5e-5,15.69125545 c 0,0 -8.29706,0 -12.4455883,0 0,-5.230754 0,-10.4615084 0,-15.69226328 z"
     id="path4160"
     style="display:inline;fill:url(#linearGradient3019-2);fill-opacity:1;stroke:none;stroke-width:0.13527814"
     inkscape:connector-curvature="0" />
  <path
     d="M 18.433781,16.527813 H 6.1234707 V 0.97082779 H 18.433781 Z"
     id="rect6741-1"
     style="fill:none;stroke:url(#linearGradient3016-9);stroke-width:0.13527814;stroke-linecap:round;stroke-linejoin:round;stroke-miterlimit:4;stroke-dasharray:none;stroke-dashoffset:0;stroke-opacity:1"
     inkscape:connector-curvature="0" />
  <path
     d="m 5.9881927,0.8355483 c 2.882912,0 12.5808523,0.001082 12.5808523,0.001082 l 1.4e-5,15.8264617 c 0,0 -8.387244,0 -12.5808663,0 0,-5.27586 0,-10.5516679 0,-15.82746817 z"
     id="path4160-6-1"
     style="display:inline;fill:none;stroke:url(#linearGradient3148);stroke-width:0.13527812;stroke-linecap:butt;stroke-linejoin:round;stroke-miterlimit:4;stroke-dasharray:none;stroke-dashoffset:0;stroke-opacity:1"
     inkscape:connector-curvature="0" />
  <g
     id="g4137"
     transform="translate(0,-104)">
    <path
       id="path3475"
       d="m 11.872791,107.67639 h 1.774733 z m 1.887025,0 h 1.359386 z m 1.471678,0 h 1.376032 z m -3.358703,0.81167 h 0.932151 z m 1.055804,0 h 1.213276 z m 1.325567,0 h 0.808762 z m 0.921054,0 h 1.43231 z m -3.302161,0.81246 h 0.831485 z m 0.943777,0 H 13.5244 Z m 0.819859,0 1.112082,0.0111 z m 1.213276,0.0111 h 1.757559 z m -2.97559,0.79978 h 1.561247 z m 1.662441,0 h 1.067165 z m 1.190553,0 h 0.426972 z m 0.539263,0 h 0.235944 z m 0.359597,0 h 0.981295 z m -7.8117843,1.35281 h 1.48304 z m 1.595331,0 h 1.5163313 z m 1.6288863,0 1.456407,0.003 z m 3.830855,0 h 0.707832 z m 0.820124,0 h 0.917883 z m -3.063046,0.001 h 2.122968 z m -4.8121503,0.81058 h 0.910221 z m 1.03361,0 h 0.775207 z m 0.909957,0 h 0.6964713 z m 0.8087623,0 h 0.303319 z m 0.426707,0 h 0.674013 z m 0.808763,0 h 1.763636 z m 1.887288,0 h 1.348026 z m 1.460317,0 h 0.426708 z m 0.538999,0 h 0.918676 z m -7.8744033,0.81167 h 1.48304 z m 1.595331,0 h 1.5163313 z m 1.6288863,0 h 0.583916 z m 0.696207,0 h 1.426762 z m 1.539053,0 h 1.797191 z m 1.920844,0 h 1.412758 z m -7.3803213,0.81166 h 1.606428 z m 1.730081,0 h 1.6624413 z m 1.7747333,0 h 0.662915 z m 0.775207,0 h 1.561247 z m 1.662441,0 h 1.067165 z m 1.190553,0 h 0.426972 z m 0.539263,0 h 0.235944 z m 0.359597,0 h 0.761204 z m -8.0318753,0.81167 h 1.381845 z m 1.527956,0 h 0.629096 z m 0.7413883,0 h 0.314416 z m 0.438068,0 h 0.572819 z m 0.696471,0 h 0.583916 z m 0.696471,0 h 0.932151 z m 1.055804,0 h 1.213012 z m 1.325567,0 h 0.808763 z m 0.921054,0 h 1.3903 z m -7.4027793,1.34724 h 1.179721 z m 1.292012,0 h 1.8196503 z m 1.9322053,0 h 0.887234 z m 0.999526,0 h 0.513898 z m -4.2237433,0.81721 h 1.381845 z m 1.527956,0 h 0.629096 z m 0.7413883,0 h 0.314416 z m 0.438068,0 h 0.572819 z m 0.696471,0 h 0.583916 z m 0.696471,0 h 0.634117 z m -4.1003543,0.81167 h 1.460581 z m 1.58397,0 h 0.438069 z m 0.550624,0 h 0.9995263 z m 1.1120813,0 h 1.485154 z m -3.2466753,0.81167 h 1.460581 z m 1.58397,0 h 0.6290963 z m 0.7413873,0 h 0.988693 z m 1.100985,0 h 1.308393 z"
       style="fill:none;stroke:#7e8087;stroke-width:0.13527814px;stroke-linecap:butt;stroke-linejoin:miter;stroke-opacity:1"
       inkscape:connector-curvature="0" />
    <path
       inkscape:connector-curvature="0"
       id="path4654"
       d="m 9.0645087,110.26727 c -0.0043,-0.0114 -0.0042,-0.0318 2.84e-4,-0.0446 0.0027,-0.008 0.0073,-0.0117 0.01948,-0.0162 0.04619,-0.0173 0.07278,-0.0359 0.08218,-0.0574 0.016,-0.0365 0.03587,-0.21563 0.04869,-0.43874 0.0047,-0.0811 0.0068,-0.12665 0.01583,-0.33194 0.0054,-0.12266 0.008,-0.99148 0.0033,-1.08728 -0.01627,-0.33016 -0.09414,-0.52691 -0.245361,-0.61997 -0.115919,-0.0713 -0.274386,-0.0519 -0.412035,0.0507 -0.0554,0.0412 -0.135433,0.12971 -0.182593,0.20182 -0.05523,0.0844 -0.111805,0.21683 -0.150538,0.35226 -0.05333,0.18645 -0.07422,0.35202 -0.07417,0.58767 5.2e-5,0.24362 0.0243,0.43548 0.07866,0.62248 0.06481,0.22291 0.150207,0.3841 0.263186,0.49678 0.04612,0.046 0.07836,0.071 0.133197,0.10351 0.09042,0.0535 0.161344,0.073 0.257366,0.0705 l 0.04462,-10e-4 -0.0023,0.0152 c -0.0046,0.0304 -0.01776,0.0444 -0.06092,0.0647 -0.05696,0.0268 -0.109608,0.0367 -0.196435,0.0368 -0.101126,1.4e-4 -0.186536,-0.0213 -0.292263,-0.0734 -0.04839,-0.0238 -0.130968,-0.0765 -0.166695,-0.10619 -0.05193,-0.0432 -0.137772,-0.13239 -0.174134,-0.1809 -0.09174,-0.12237 -0.167733,-0.27794 -0.215408,-0.44098 -0.02888,-0.0988 -0.04996,-0.21638 -0.05739,-0.32023 -0.0071,-0.0989 -0.0032,-0.28679 0.0084,-0.41084 0.02968,-0.316 0.135652,-0.60007 0.300769,-0.8062 0.03518,-0.0439 0.119594,-0.12799 0.164825,-0.16415 0.07148,-0.0571 0.173742,-0.11643 0.259116,-0.15022 0.100624,-0.0398 0.245372,-0.0714 0.375393,-0.0819 0.142029,-0.0114 0.215153,-0.004 0.320665,0.0346 0.02329,0.008 0.05393,0.0211 0.06809,0.0282 0.03599,0.0181 0.09203,0.0562 0.120046,0.0817 0.04189,0.0381 0.03616,0.0355 0.05297,0.0239 0.02191,-0.015 0.04282,-0.0249 0.104382,-0.0491 0.148136,-0.0584 0.326392,-0.10443 0.4558743,-0.11764 0.05388,-0.005 0.161108,-0.005 0.21654,0.002 0.184382,0.0213 0.357024,0.0916 0.491295,0.20004 0.04349,0.0351 0.121425,0.1163 0.149667,0.15588 0.102658,0.14383 0.16303,0.29478 0.190215,0.47558 0.01021,0.0679 0.01384,0.12711 0.0138,0.22525 -1.23e-4,0.29552 -0.03736,0.55251 -0.113366,0.78249 -0.110697,0.33491 -0.288215,0.59084 -0.511509,0.73745 -0.0485,0.0318 -0.145542,0.0811 -0.19407,0.0984 -0.07381,0.0264 -0.151478,0.0418 -0.227629,0.0451 -0.05869,0.003 -0.05928,0.002 -0.05928,-0.035 0,-0.0195 0.0016,-0.029 0.0058,-0.0355 l 0.0058,-0.009 0.01959,0.005 c 0.0165,0.004 0.02575,0.005 0.05863,0.001 0.101474,-0.01 0.165253,-0.0434 0.252248,-0.13301 0.06187,-0.0638 0.09919,-0.1169 0.146004,-0.20786 0.09483,-0.18428 0.157378,-0.40442 0.1891,-0.66558 0.01705,-0.14039 0.01716,-0.14278 0.01716,-0.38782 0,-0.24113 -5.68e-4,-0.25488 -0.0156,-0.38275 -0.05178,-0.44029 -0.192182,-0.69791 -0.420725,-0.77202 -0.04844,-0.0157 -0.08058,-0.0202 -0.144571,-0.0203 -0.06919,-8e-5 -0.09979,0.006 -0.1485413,0.0287 -0.128247,0.0601 -0.220047,0.17272 -0.274568,0.33684 -0.04658,0.14021 -0.05189,0.23206 -0.05816,1.00597 -0.0064,0.79209 0.0033,1.03653 0.04478,1.12475 0.01535,0.0327 0.05891,0.064 0.109935,0.079 0.03072,0.009 0.03673,0.0154 0.03439,0.0362 -0.0013,0.0117 -0.0045,0.0185 -0.01236,0.0263 l -0.01059,0.0106 h -0.04143 c -0.02279,0 -0.0771,-0.002 -0.120687,-0.005 -0.04359,-0.003 -0.135804,-0.005 -0.204922,-0.005 -0.111155,-1.4e-4 -0.136747,8.5e-4 -0.221606,0.009 -0.05277,0.005 -0.09891,0.009 -0.102545,0.009 -0.004,0 -0.0079,-0.003 -0.0099,-0.009 z"
       style="fill:#ed5353;fill-opacity:1;stroke:#7e8087;stroke-width:0.0002371;stroke-linecap:round;stroke-linejoin:round;stroke-miterlimit:1.5;stroke-dasharray:none;stroke-dashoffset:0;stroke-opacity:1" />
    <path
       style="fill:none;stroke:#7e8087;stroke-width:0.13527814;stroke-linecap:butt;stroke-linejoin:miter;stroke-miterlimit:4;stroke-dasharray:3.24667518, 0.13527813;stroke-dashoffset:0;stroke-opacity:1"
       d="m 12.732288,116.87718 h 3.923066"
       id="path4658"
       inkscape:connector-curvature="0" />
    <path
       inkscape:connector-curvature="0"
       id="path4662"
       d="m 12.72631,116.06404 h 3.923065"
       style="fill:none;stroke:#7e8087;stroke-width:0.13527814;stroke-linecap:butt;stroke-linejoin:miter;stroke-miterlimit:4;stroke-dasharray:0.4058344, 0.13527813;stroke-dashoffset:0;stroke-opacity:1" />
    <path
       style="fill:none;stroke:#7e8087;stroke-width:0.13527814;stroke-linecap:butt;stroke-linejoin:miter;stroke-miterlimit:4;stroke-dasharray:1.08222506, 0.27055626, 0.13527813, 0.27055626;stroke-dashoffset:0;stroke-opacity:1"
       d="m 12.68446,117.68727 h 3.923066"
       id="path4664"
       inkscape:connector-curvature="0" />
    <path
       inkscape:connector-curvature="0"
       id="path4666"
       d="m 12.68446,118.50034 h 3.923066"
       style="fill:none;stroke:#7e8087;stroke-width:0.13527814;stroke-linecap:butt;stroke-linejoin:miter;stroke-miterlimit:4;stroke-dasharray:1.62333759, 0.13527813;stroke-dashoffset:0;stroke-opacity:1" />
  </g>
</svg>
