<?xml version="1.0" encoding="UTF-8" standalone="no"?>
<!DOCTYPE svg PUBLIC "-//W3C//DTD SVG 1.1//EN" "http://www.w3.org/Graphics/SVG/1.1/DTD/svg11.dtd">
<svg width="100%" height="100%" viewBox="0 0 128 128" version="1.1" xmlns="http://www.w3.org/2000/svg" xmlns:xlink="http://www.w3.org/1999/xlink" xml:space="preserve" xmlns:serif="http://www.serif.com/" style="fill-rule:evenodd;clip-rule:evenodd;stroke-linecap:round;stroke-linejoin:round;stroke-miterlimit:1.5;">
    <g transform="matrix(1,0,0,1,-128,-1121)">
        <g id="exports" transform="matrix(1,0,0,1,0,865)">
            <rect x="0" y="0" width="1280" height="800" style="fill:none;"/>
            <g id="base" transform="matrix(0.862488,0,0,0.784483,-368.467,49.6379)">
                <g>
                    <g id="drop-shadow" serif:id="drop shadow" transform="matrix(1.14286,0,0,1.14286,430.571,130.571)">
                        <g id="left" transform="matrix(-1.25,0,0,1.125,424,-30.375)">
                            <rect x="136" y="243" width="24" height="8" style="fill:url(#_Radial1);"/>
                        </g>
                        <g id="left1" serif:id="left" transform="matrix(1.25,0,0,1.125,-40,-30.375)">
                            <rect x="136" y="243" width="24" height="8" style="fill:url(#_Radial2);"/>
                        </g>
                        <g id="center" transform="matrix(1,0,0,0.75,0,63)">
                            <rect x="160" y="240" width="64" height="12" style="fill:url(#_Linear3);"/>
                        </g>
                    </g>
                    <g id="background" transform="matrix(0.256,0,0,0.256,483.6,260.4)">
                        <g id="outer-stroke" serif:id="outer stroke" transform="matrix(1,0,0,1,1.13687e-13,-100)">
                            <path d="M900,254.154C900,224.266 877.929,200 850.744,200L449.256,200C422.071,200 400,224.266 400,254.154L400,645.846C400,675.734 422.071,700 449.256,700L850.744,700C877.929,700 900,675.734 900,645.846L900,254.154Z" style="fill:rgb(240,242,235);fill-opacity:0.6;stroke:url(#_Linear4);stroke-width:4.74px;"/>
                        </g>
                        <g transform="matrix(1,0,0,1,2.13163e-14,-100)">
                            <path d="M900,254.154C900,224.266 877.929,200 850.744,200L449.256,200C422.071,200 400,224.266 400,254.154L400,645.846C400,675.734 422.071,700 449.256,700L850.744,700C877.929,700 900,675.734 900,645.846L900,254.154Z" style="fill:rgb(240,242,235);"/>
                        </g>
                        <g id="inner-stroke" serif:id="inner stroke" transform="matrix(0.991071,0,0,0.991071,5.80357,-95.9821)">
                            <path d="M900,254.154C900,224.266 877.929,200 850.744,200L449.256,200C422.071,200 400,224.266 400,254.154L400,645.846C400,675.734 422.071,700 449.256,700L850.744,700C877.929,700 900,675.734 900,645.846L900,254.154Z" style="fill:rgb(240,242,235);fill-opacity:0.5;stroke:rgb(224,224,224);stroke-opacity:0.5;stroke-width:4.78px;"/>
                        </g>
                        <g id="shade" transform="matrix(0.982143,0,0,0.982143,11.6071,-91.9643)">
                            <path d="M900,254.154C900,224.266 877.929,200 850.744,200L449.256,200C422.071,200 400,224.266 400,254.154L400,645.846C400,675.734 422.071,700 449.256,700L850.744,700C877.929,700 900,675.734 900,645.846L900,254.154Z" style="fill:rgb(240,242,235);fill-opacity:0.25;stroke:url(#_Linear5);stroke-width:4.82px;"/>
                        </g>
                    </g>
                    <g id="lettering" transform="matrix(0.256,0,0,0.256,483.6,260.4)">
                        <g transform="matrix(0.913007,0,0,1.20998,32.4852,-109.044)">
                            <g id="lettering1" serif:id="lettering">
                                <g transform="matrix(335.051,0,0,335.051,493.08,500)">
                                    <path d="M0.62,-0.049C0.624,-0.033 0.638,-0.023 0.662,-0.019C0.668,-0.018 0.671,-0.015 0.671,-0.009C0.671,-0.006 0.669,-0.003 0.666,0C0.663,0.003 0.658,0.004 0.653,0.004C0.643,0.004 0.63,0.003 0.613,0.002C0.596,0.001 0.573,0 0.542,0C0.517,0 0.496,0.001 0.477,0.003C0.458,0.004 0.447,0.005 0.443,0.006C0.44,0.006 0.437,0.005 0.436,0.003C0.435,0.001 0.434,-0.001 0.434,-0.004C0.434,-0.007 0.435,-0.009 0.436,-0.012C0.436,-0.015 0.438,-0.016 0.44,-0.016C0.445,-0.017 0.449,-0.018 0.454,-0.02C0.459,-0.022 0.463,-0.025 0.467,-0.028C0.469,-0.03 0.472,-0.041 0.475,-0.06C0.478,-0.079 0.48,-0.105 0.483,-0.137C0.485,-0.168 0.487,-0.205 0.489,-0.246C0.49,-0.287 0.491,-0.331 0.491,-0.377L0.491,-0.485C0.491,-0.518 0.489,-0.545 0.486,-0.566C0.48,-0.61 0.466,-0.644 0.444,-0.668C0.422,-0.691 0.396,-0.703 0.367,-0.703C0.341,-0.703 0.315,-0.696 0.29,-0.682C0.265,-0.667 0.242,-0.646 0.222,-0.619C0.202,-0.591 0.186,-0.556 0.174,-0.516C0.161,-0.474 0.155,-0.428 0.155,-0.375C0.155,-0.317 0.162,-0.267 0.175,-0.224C0.188,-0.181 0.205,-0.145 0.226,-0.116C0.247,-0.087 0.272,-0.065 0.3,-0.051C0.327,-0.036 0.356,-0.029 0.386,-0.029L0.392,-0.029C0.394,-0.029 0.396,-0.029 0.397,-0.03C0.4,-0.031 0.401,-0.031 0.402,-0.03C0.403,-0.029 0.403,-0.027 0.402,-0.025C0.401,-0.022 0.401,-0.02 0.4,-0.018C0.399,-0.015 0.397,-0.014 0.396,-0.013C0.389,-0.008 0.38,-0.004 0.368,-0.001C0.356,0.003 0.339,0.005 0.318,0.005C0.283,0.005 0.248,-0.003 0.213,-0.02C0.178,-0.036 0.146,-0.059 0.119,-0.088C0.091,-0.117 0.069,-0.153 0.052,-0.195C0.035,-0.236 0.026,-0.282 0.026,-0.332C0.026,-0.403 0.036,-0.464 0.057,-0.515C0.078,-0.566 0.106,-0.607 0.142,-0.639C0.177,-0.671 0.219,-0.695 0.266,-0.71C0.313,-0.724 0.363,-0.732 0.416,-0.732C0.435,-0.732 0.453,-0.73 0.469,-0.726C0.485,-0.722 0.499,-0.717 0.511,-0.712C0.523,-0.706 0.533,-0.7 0.541,-0.695C0.548,-0.69 0.553,-0.686 0.556,-0.683C0.561,-0.687 0.572,-0.692 0.589,-0.698C0.605,-0.703 0.623,-0.708 0.645,-0.714C0.666,-0.719 0.687,-0.723 0.71,-0.727C0.733,-0.73 0.753,-0.732 0.772,-0.732C0.823,-0.731 0.867,-0.722 0.906,-0.707C0.944,-0.692 0.976,-0.671 1.002,-0.646C1.027,-0.62 1.047,-0.59 1.06,-0.557C1.073,-0.523 1.079,-0.487 1.079,-0.449C1.079,-0.378 1.069,-0.314 1.051,-0.259C1.032,-0.203 1.006,-0.156 0.974,-0.117C0.942,-0.078 0.905,-0.049 0.863,-0.029C0.821,-0.008 0.777,0.002 0.731,0.002C0.727,0.002 0.724,0.001 0.723,-0.003C0.722,-0.006 0.721,-0.009 0.722,-0.012C0.722,-0.015 0.723,-0.018 0.725,-0.021C0.727,-0.023 0.729,-0.024 0.731,-0.023C0.734,-0.022 0.737,-0.021 0.739,-0.021L0.747,-0.021C0.774,-0.021 0.8,-0.03 0.824,-0.049C0.848,-0.068 0.869,-0.093 0.887,-0.127C0.905,-0.16 0.919,-0.198 0.93,-0.244C0.94,-0.289 0.945,-0.338 0.945,-0.391C0.945,-0.49 0.93,-0.568 0.9,-0.623C0.869,-0.678 0.822,-0.706 0.759,-0.706C0.74,-0.706 0.722,-0.702 0.705,-0.694C0.688,-0.686 0.674,-0.676 0.662,-0.663C0.649,-0.65 0.639,-0.635 0.632,-0.618C0.624,-0.601 0.619,-0.584 0.617,-0.567C0.614,-0.544 0.612,-0.506 0.611,-0.455C0.61,-0.404 0.61,-0.342 0.609,-0.269C0.608,-0.216 0.609,-0.169 0.611,-0.13C0.612,-0.09 0.615,-0.063 0.62,-0.049Z" style="fill:rgb(237,83,83);fill-rule:nonzero;"/>
                                </g>
                            </g>
                        </g>
                        <g transform="matrix(0.913007,0,0,1.20998,32.4852,-109.044)">
                            <g id="lettering2" serif:id="lettering">
                                <g transform="matrix(335.051,0,0,335.051,493.08,500)">
                                    <path d="M0.62,-0.049C0.624,-0.033 0.638,-0.023 0.662,-0.019C0.668,-0.018 0.671,-0.015 0.671,-0.009C0.671,-0.006 0.669,-0.003 0.666,0C0.663,0.003 0.658,0.004 0.653,0.004C0.643,0.004 0.63,0.003 0.613,0.002C0.596,0.001 0.573,0 0.542,0C0.517,0 0.496,0.001 0.477,0.003C0.458,0.004 0.447,0.005 0.443,0.006C0.44,0.006 0.437,0.005 0.436,0.003C0.435,0.001 0.434,-0.001 0.434,-0.004C0.434,-0.007 0.435,-0.009 0.436,-0.012C0.436,-0.015 0.438,-0.016 0.44,-0.016C0.445,-0.017 0.449,-0.018 0.454,-0.02C0.459,-0.022 0.463,-0.025 0.467,-0.028C0.469,-0.03 0.472,-0.041 0.475,-0.06C0.478,-0.079 0.48,-0.105 0.483,-0.137C0.485,-0.168 0.487,-0.205 0.489,-0.246C0.49,-0.287 0.491,-0.331 0.491,-0.377L0.491,-0.485C0.491,-0.518 0.489,-0.545 0.486,-0.566C0.48,-0.61 0.466,-0.644 0.444,-0.668C0.422,-0.691 0.396,-0.703 0.367,-0.703C0.341,-0.703 0.315,-0.696 0.29,-0.682C0.265,-0.667 0.242,-0.646 0.222,-0.619C0.202,-0.591 0.186,-0.556 0.174,-0.516C0.161,-0.474 0.155,-0.428 0.155,-0.375C0.155,-0.317 0.162,-0.267 0.175,-0.224C0.188,-0.181 0.205,-0.145 0.226,-0.116C0.247,-0.087 0.272,-0.065 0.3,-0.051C0.327,-0.036 0.356,-0.029 0.386,-0.029L0.392,-0.029C0.394,-0.029 0.396,-0.029 0.397,-0.03C0.4,-0.031 0.401,-0.031 0.402,-0.03C0.403,-0.029 0.403,-0.027 0.402,-0.025C0.401,-0.022 0.401,-0.02 0.4,-0.018C0.399,-0.015 0.397,-0.014 0.396,-0.013C0.389,-0.008 0.38,-0.004 0.368,-0.001C0.356,0.003 0.339,0.005 0.318,0.005C0.283,0.005 0.248,-0.003 0.213,-0.02C0.178,-0.036 0.146,-0.059 0.119,-0.088C0.091,-0.117 0.069,-0.153 0.052,-0.195C0.035,-0.236 0.026,-0.282 0.026,-0.332C0.026,-0.403 0.036,-0.464 0.057,-0.515C0.078,-0.566 0.106,-0.607 0.142,-0.639C0.177,-0.671 0.219,-0.695 0.266,-0.71C0.313,-0.724 0.363,-0.732 0.416,-0.732C0.435,-0.732 0.453,-0.73 0.469,-0.726C0.485,-0.722 0.499,-0.717 0.511,-0.712C0.523,-0.706 0.533,-0.7 0.541,-0.695C0.548,-0.69 0.553,-0.686 0.556,-0.683C0.561,-0.687 0.572,-0.692 0.589,-0.698C0.605,-0.703 0.623,-0.708 0.645,-0.714C0.666,-0.719 0.687,-0.723 0.71,-0.727C0.733,-0.73 0.753,-0.732 0.772,-0.732C0.823,-0.731 0.867,-0.722 0.906,-0.707C0.944,-0.692 0.976,-0.671 1.002,-0.646C1.027,-0.62 1.047,-0.59 1.06,-0.557C1.073,-0.523 1.079,-0.487 1.079,-0.449C1.079,-0.378 1.069,-0.314 1.051,-0.259C1.032,-0.203 1.006,-0.156 0.974,-0.117C0.942,-0.078 0.905,-0.049 0.863,-0.029C0.821,-0.008 0.777,0.002 0.731,0.002C0.727,0.002 0.724,0.001 0.723,-0.003C0.722,-0.006 0.721,-0.009 0.722,-0.012C0.722,-0.015 0.723,-0.018 0.725,-0.021C0.727,-0.023 0.729,-0.024 0.731,-0.023C0.734,-0.022 0.737,-0.021 0.739,-0.021L0.747,-0.021C0.774,-0.021 0.8,-0.03 0.824,-0.049C0.848,-0.068 0.869,-0.093 0.887,-0.127C0.905,-0.16 0.919,-0.198 0.93,-0.244C0.94,-0.289 0.945,-0.338 0.945,-0.391C0.945,-0.49 0.93,-0.568 0.9,-0.623C0.869,-0.678 0.822,-0.706 0.759,-0.706C0.74,-0.706 0.722,-0.702 0.705,-0.694C0.688,-0.686 0.674,-0.676 0.662,-0.663C0.649,-0.65 0.639,-0.635 0.632,-0.618C0.624,-0.601 0.619,-0.584 0.617,-0.567C0.614,-0.544 0.612,-0.506 0.611,-0.455C0.61,-0.404 0.61,-0.342 0.609,-0.269C0.608,-0.216 0.609,-0.169 0.611,-0.13C0.612,-0.09 0.615,-0.063 0.62,-0.049Z" style="fill:rgb(237,83,83);fill-rule:nonzero;"/>
                                </g>
                            </g>
                        </g>
                    </g>
                </g>
            </g>
            <g id="base1" serif:id="base" transform="matrix(0.451613,0,0,0.410768,26.4516,204.915)">
                <g id="drop-shadow1" serif:id="drop shadow">
                </g>
                <g id="background1" serif:id="background">
                </g>
            </g>
            <g id="base2" serif:id="base" transform="matrix(0.331726,0,0,0.301724,209.446,248.601)">
                <g id="drop-shadow2" serif:id="drop shadow">
                </g>
                <g id="background2" serif:id="background">
                </g>
            </g>
            <g id="inverted" transform="matrix(0.875,0,0,0.875,-376.75,141.75)">
                <g id="drop-shadow3" serif:id="drop shadow">
                </g>
                <g id="background3" serif:id="background">
                </g>
            </g>
            <g id="inverted1" serif:id="inverted" transform="matrix(0.451613,0,0,0.451613,24.4516,317.29)">
                <g id="drop-shadow4" serif:id="drop shadow">
                </g>
                <g id="background4" serif:id="background">
                </g>
            </g>
            <g id="inverted2" serif:id="inverted" transform="matrix(0.331653,0,0,0.331653,208.925,366.599)">
                <g id="drop-shadow5" serif:id="drop shadow">
                </g>
                <g id="background5" serif:id="background">
                </g>
            </g>
            <g id="sketch" transform="matrix(0.875,0,0,0.875,-376.75,-114.25)">
                <g id="drop-shadow6" serif:id="drop shadow">
                </g>
                <g id="background6" serif:id="background">
                </g>
            </g>
        </g>
    </g>
    <defs>
        <radialGradient id="_Radial1" cx="0" cy="0" r="1" gradientUnits="userSpaceOnUse" gradientTransform="matrix(-24,9.0537e-14,-2.11975e-14,-3.84,160,247.16)"><stop offset="0" style="stop-color:rgb(224,224,224);stop-opacity:0.6"/><stop offset="1" style="stop-color:rgb(179,179,179);stop-opacity:0"/></radialGradient>
        <radialGradient id="_Radial2" cx="0" cy="0" r="1" gradientUnits="userSpaceOnUse" gradientTransform="matrix(-24,9.0537e-14,-2.11975e-14,-3.84,160,247.16)"><stop offset="0" style="stop-color:rgb(224,224,224);stop-opacity:0.6"/><stop offset="1" style="stop-color:rgb(179,179,179);stop-opacity:0"/></radialGradient>
        <linearGradient id="_Linear3" x1="0" y1="0" x2="1" y2="0" gradientUnits="userSpaceOnUse" gradientTransform="matrix(5.51091e-16,12,-9,7.34788e-16,192,240)"><stop offset="0" style="stop-color:white;stop-opacity:0"/><stop offset="0.5" style="stop-color:rgb(224,224,224);stop-opacity:0.6"/><stop offset="1" style="stop-color:rgb(179,179,179);stop-opacity:0"/></linearGradient>
        <linearGradient id="_Linear4" x1="0" y1="0" x2="1" y2="0" gradientUnits="userSpaceOnUse" gradientTransform="matrix(3.03428e-14,495.536,-495.536,3.03428e-14,658.929,200)"><stop offset="0" style="stop-color:rgb(240,242,235);stop-opacity:0.6"/><stop offset="1" style="stop-color:rgb(167,167,167);stop-opacity:0.6"/></linearGradient>
        <linearGradient id="_Linear5" x1="0" y1="0" x2="1" y2="0" gradientUnits="userSpaceOnUse" gradientTransform="matrix(3.08945e-14,504.545,-504.545,3.08945e-14,645.455,200)"><stop offset="0" style="stop-color:white;stop-opacity:0.09"/><stop offset="1" style="stop-color:rgb(228,228,228);stop-opacity:0.13"/></linearGradient>
    </defs>
</svg>
