<?xml version="1.0" encoding="UTF-8" standalone="no"?>
<svg
   xmlns:dc="http://purl.org/dc/elements/1.1/"
   xmlns:cc="http://creativecommons.org/ns#"
   xmlns:rdf="http://www.w3.org/1999/02/22-rdf-syntax-ns#"
   xmlns:svg="http://www.w3.org/2000/svg"
   xmlns="http://www.w3.org/2000/svg"
   xmlns:xlink="http://www.w3.org/1999/xlink"
   xmlns:sodipodi="http://sodipodi.sourceforge.net/DTD/sodipodi-0.dtd"
   xmlns:inkscape="http://www.inkscape.org/namespaces/inkscape"
   version="1.1"
   width="16"
   height="16"
   id="svg3172"
   sodipodi:docname="application-x-manuscript.svg"
   inkscape:version="0.92.3 (2405546, 2018-03-11)">
  <sodipodi:namedview
     pagecolor="#ffffff"
     bordercolor="#666666"
     borderopacity="1"
     objecttolerance="10"
     gridtolerance="10"
     guidetolerance="10"
     inkscape:pageopacity="0"
     inkscape:pageshadow="2"
     inkscape:window-width="3314"
     inkscape:window-height="1747"
     id="namedview40"
     showgrid="false"
     inkscape:zoom="5.6568543"
     inkscape:cx="-52.837336"
     inkscape:cy="85.724113"
     inkscape:window-x="216"
     inkscape:window-y="78"
     inkscape:window-maximized="0"
     inkscape:current-layer="g4137">
    <inkscape:grid
       type="xygrid"
       id="grid4572" />
  </sodipodi:namedview>
  <defs
     id="defs3174">
    <linearGradient
       id="linearGradient3600">
      <stop
         id="stop3602"
         style="stop-color:#f4f4f4;stop-opacity:1"
         offset="0" />
      <stop
         id="stop3604"
         style="stop-color:#dbdbdb;stop-opacity:1"
         offset="1" />
    </linearGradient>
    <linearGradient
       id="linearGradient3702-501-757-486">
      <stop
         id="stop3100"
         style="stop-color:#181818;stop-opacity:0"
         offset="0" />
      <stop
         id="stop3102"
         style="stop-color:#181818;stop-opacity:1"
         offset="0.5" />
      <stop
         id="stop3104"
         style="stop-color:#181818;stop-opacity:0"
         offset="1" />
    </linearGradient>
    <linearGradient
       id="linearGradient3688-464-309-255">
      <stop
         id="stop3094"
         style="stop-color:#181818;stop-opacity:1"
         offset="0" />
      <stop
         id="stop3096"
         style="stop-color:#181818;stop-opacity:0"
         offset="1" />
    </linearGradient>
    <linearGradient
       x1="25.132275"
       y1="0.98520643"
       x2="25.132275"
       y2="47.013336"
       id="linearGradient3019-2"
       xlink:href="#linearGradient3600"
       gradientUnits="userSpaceOnUse"
       gradientTransform="matrix(0.18521088,0,0,0.17759574,3.8855919,0.16855752)" />
    <linearGradient
       x1="23.99999"
       y1="5.5641499"
       x2="23.99999"
       y2="42.194839"
       id="linearGradient3016-9"
       xlink:href="#linearGradient3977-3"
       gradientUnits="userSpaceOnUse"
       gradientTransform="matrix(0.17329553,0,0,0.21899985,4.1715619,-0.5527203)" />
    <linearGradient
       id="linearGradient3977-3">
      <stop
         id="stop3979-6"
         style="stop-color:#ffffff;stop-opacity:1"
         offset="0" />
      <stop
         id="stop3981-0"
         style="stop-color:#ffffff;stop-opacity:0.23529412"
         offset="0.00648027" />
      <stop
         id="stop3983-6"
         style="stop-color:#ffffff;stop-opacity:0.15686275"
         offset="0.99423188" />
      <stop
         id="stop3985-2"
         style="stop-color:#ffffff;stop-opacity:0.39215687"
         offset="1" />
    </linearGradient>
    <linearGradient
       x1="-51.786404"
       y1="50.786446"
       x2="-51.786404"
       y2="2.9062471"
       id="linearGradient3148"
       xlink:href="#linearGradient3104-6"
       gradientUnits="userSpaceOnUse"
       gradientTransform="matrix(0.15118283,0,0,0.16763539,14.9603,-0.07019826)" />
    <linearGradient
       id="linearGradient3104-6">
      <stop
         id="stop3106-3"
         style="stop-color:#000000;stop-opacity:0.31782946"
         offset="0" />
      <stop
         id="stop3108-9"
         style="stop-color:#000000;stop-opacity:0.24031007"
         offset="1" />
    </linearGradient>
    <linearGradient
       gradientUnits="userSpaceOnUse"
       xlink:href="#linearGradient3702-501-757-486"
       id="linearGradient4097"
       y2="39.999443"
       x2="25.058096"
       y1="47.027729"
       x1="25.058096"
       gradientTransform="matrix(2.8421052,0,0,0.71428566,-4.2105336,87.430066)" />
    <radialGradient
       gradientTransform="matrix(5.6949649,0,0,0.99999992,-52.665305,-162.00149)"
       gradientUnits="userSpaceOnUse"
       xlink:href="#linearGradient3688-464-309-255"
       id="radialGradient4095"
       fy="43.5"
       fx="4.9929786"
       r="2.5"
       cy="43.5"
       cx="4.9929786" />
    <radialGradient
       gradientTransform="matrix(5.6949649,0,0,0.99999992,75.334676,75.001496)"
       gradientUnits="userSpaceOnUse"
       xlink:href="#linearGradient3688-464-309-255"
       id="radialGradient4093"
       fy="43.5"
       fx="4.9929786"
       r="2.5"
       cy="43.5"
       cx="4.9929786" />
  </defs>
  <metadata
     id="metadata3177">
    <rdf:RDF>
      <cc:Work
         rdf:about="">
        <dc:format>image/svg+xml</dc:format>
        <dc:type
           rdf:resource="http://purl.org/dc/dcmitype/StillImage" />
        <dc:title></dc:title>
      </cc:Work>
    </rdf:RDF>
  </metadata>
  <g
     id="g978"
     style="opacity:0.2;stroke-width:1.03923047"
     transform="matrix(0.0652415,0,0,0.07046082,4.1551979,0.47562365)">
    <rect
       style="fill:url(#radialGradient4093);fill-opacity:1;stroke:none;stroke-width:1.48070288"
       id="rect2801"
       y="116.00149"
       x="103.78947"
       height="4.9999995"
       width="14.210526" />
    <rect
       style="fill:url(#radialGradient4095);fill-opacity:1;stroke:none;stroke-width:1.48070288"
       id="rect3696"
       transform="scale(-1)"
       y="-121.00149"
       x="-24.210518"
       height="4.9999995"
       width="14.210526" />
    <rect
       style="fill:url(#linearGradient4097);fill-opacity:1;stroke:none;stroke-width:1.48070288"
       id="rect3700"
       y="116.00149"
       x="24.210518"
       height="5"
       width="79.578949" />
  </g>
  <path
     d="m 5.0894549,0.616577 c 1.485447,0 6.4823881,4.9322e-4 6.4823881,4.9322e-4 l 8e-6,8.17293018 c 0,0 -4.3215981,0 -6.4823961,0 0,-2.7244848 0,-5.4489698 0,-8.17345511 z"
     id="path4160"
     style="display:inline;fill:url(#linearGradient3019-2);fill-opacity:1;stroke:none;stroke-width:0.07046082"
     inkscape:connector-curvature="0" />
  <path
     d="M 11.53662,8.75477 H 5.1246859 V 0.6517757 H 11.53662 Z"
     id="rect6741-1"
     style="fill:none;stroke:url(#linearGradient3016-9);stroke-width:0.07046082;stroke-linecap:round;stroke-linejoin:round;stroke-miterlimit:4;stroke-dasharray:none;stroke-dashoffset:0;stroke-opacity:1"
     inkscape:connector-curvature="0" />
  <path
     d="m 5.0542249,0.58131417 c 1.501591,0 6.5528491,5.6369e-4 6.5528491,5.6369e-4 l 7e-6,8.24335374 c 0,0 -4.3685701,0 -6.5528561,0 0,-2.7479788 0,-5.4959304 0,-8.24387797 z"
     id="path4160-6-1"
     style="display:inline;fill:none;stroke:url(#linearGradient3148);stroke-width:0.07046082;stroke-linecap:butt;stroke-linejoin:round;stroke-miterlimit:4;stroke-dasharray:none;stroke-dashoffset:0;stroke-opacity:1"
     inkscape:connector-curvature="0" />
  <g
     id="g4137"
     transform="translate(0,-112)">
    <path
       id="path3475"
       d="m 8.1192709,114.06099 h 0.924385 z m 0.982873,0 h 0.708049 z m 0.766537,0 h 0.7167181 z m -1.74941,0.42277 h 0.485519 z m 0.549924,0 h 0.631946 z m 0.690434,0 h 0.421251 z m 0.479739,0 h 0.7460311 z m -1.71996,0.42317 h 0.433087 z m 0.491575,0 h 0.368543 z m 0.427031,0 0.579237,0.006 z m 0.631945,0.006 h 0.9154401 z m -1.549863,0.41658 h 0.81319 z m 0.865898,0 h 0.555842 z m 0.62011,0 h 0.222392 z m 0.28088,0 h 0.1228941 z m 0.1872991,0 h 0.511116 z m -4.0688371,0.70462 h 0.772454 z m 0.830942,0 h 0.789794 z m 0.84842,0 0.758582,0.002 z m 1.995335,0 h 0.3686811 z m 0.4271691,0 h 0.478087 z m -1.5954151,5.5e-4 h 1.105767 z m -2.506451,0.4222 h 0.474097 z m 0.538365,0 h 0.403773 z m 0.473959,0 h 0.362763 z m 0.421251,0 h 0.157986 z m 0.222254,0 h 0.351066 z m 0.421251,0 h 0.918606 z m 0.983011,0 h 0.702131 z m 0.760619,0 h 0.2222551 z m 0.2807431,0 h 0.4785 z m -4.1014531,0.42276 h 0.772454 z m 0.830942,0 h 0.789794 z m 0.84842,0 h 0.304138 z m 0.362626,0 h 0.743141 z m 0.801629,0 h 0.936083 z m 1.000489,0 h 0.7358471 z m -3.844106,0.42277 h 0.836722 z m 0.901128,0 h 0.865897 z m 0.924385,0 h 0.345286 z m 0.403774,0 h 0.813189 z m 0.865897,0 h 0.555842 z m 0.62011,0 h 0.222392 z m 0.2808801,0 h 0.122894 z m 0.1873,0 h 0.396479 z m -4.1834741,0.42276 h 0.719746 z m 0.795849,0 h 0.327671 z m 0.386159,0 h 0.163766 z m 0.228172,0 h 0.298357 z m 0.362763,0 h 0.304137 z m 0.362763,0 h 0.485519 z m 0.549925,0 h 0.631808 z m 0.690433,0 h 0.421251 z m 0.479739,0 h 0.7241501 z m -3.855803,0.70172 h 0.614468 z m 0.672956,0 h 0.94778 z m 1.006406,0 h 0.462124 z m 0.520612,0 h 0.267668 z m -2.199974,0.42566 h 0.719746 z m 0.795849,0 h 0.327671 z m 0.386159,0 h 0.163766 z m 0.228172,0 h 0.298357 z m 0.362763,0 h 0.304137 z m 0.362763,0 h 0.330285 z m -2.135706,0.42276 h 0.760757 z m 0.825025,0 h 0.228172 z m 0.286797,0 h 0.520612 z m 0.579238,0 h 0.773555 z m -1.69106,0.42277 h 0.760757 z m 0.825025,0 h 0.32767 z m 0.386158,0 h 0.514969 z m 0.573457,0 h 0.681489 z"
       style="fill:none;stroke:#7e8087;stroke-width:0.07046082px;stroke-linecap:butt;stroke-linejoin:miter;stroke-opacity:1"
       inkscape:connector-curvature="0" />
    <path
       inkscape:connector-curvature="0"
       id="path4654"
       d="m 6.6565519,115.41048 c -0.0023,-0.006 -0.0022,-0.0165 1.48e-4,-0.0232 0.0014,-0.004 0.0038,-0.006 0.01014,-0.008 0.02406,-0.009 0.03791,-0.0187 0.0428,-0.0299 0.0083,-0.019 0.01869,-0.11232 0.02536,-0.22852 0.0024,-0.0423 0.0036,-0.066 0.0082,-0.1729 0.0028,-0.0639 0.0042,-0.51642 0.0017,-0.56631 -0.0085,-0.17197 -0.04903,-0.27445 -0.127799,-0.32292 -0.06038,-0.0372 -0.142916,-0.027 -0.214612,0.0264 -0.02886,0.0215 -0.07054,0.0676 -0.09511,0.10512 -0.02876,0.044 -0.05823,0.11294 -0.07841,0.18348 -0.02778,0.0971 -0.03866,0.18335 -0.03863,0.30609 2.7e-5,0.12689 0.01266,0.22682 0.04097,0.32422 0.03375,0.11611 0.07824,0.20007 0.137083,0.25875 0.02402,0.024 0.04082,0.037 0.06938,0.0539 0.04709,0.0279 0.08404,0.038 0.134051,0.0367 l 0.02324,-6e-4 -0.0012,0.008 c -0.0024,0.0158 -0.0093,0.0231 -0.03173,0.0337 -0.02967,0.014 -0.05709,0.0191 -0.102315,0.0192 -0.05267,7e-5 -0.09716,-0.0111 -0.152228,-0.0382 -0.0252,-0.0124 -0.06822,-0.0398 -0.08682,-0.0553 -0.02705,-0.0225 -0.07176,-0.069 -0.0907,-0.0942 -0.04778,-0.0637 -0.08737,-0.14477 -0.112197,-0.22969 -0.01504,-0.0514 -0.02602,-0.11271 -0.02989,-0.1668 -0.0037,-0.0515 -0.0017,-0.14938 0.0044,-0.21399 0.01546,-0.16459 0.07066,-0.31255 0.156659,-0.41992 0.01832,-0.0229 0.06229,-0.0667 0.08585,-0.0855 0.03723,-0.0298 0.0905,-0.0606 0.134963,-0.0782 0.05241,-0.0207 0.127804,-0.0372 0.195527,-0.0426 0.07398,-0.006 0.112064,-0.002 0.167021,0.018 0.01213,0.004 0.02809,0.011 0.03546,0.0147 0.01875,0.009 0.04793,0.0293 0.06253,0.0425 0.02182,0.0198 0.01883,0.0185 0.02759,0.0125 0.01141,-0.008 0.0223,-0.013 0.05437,-0.0256 0.07716,-0.0304 0.170004,-0.0544 0.237446,-0.0613 0.02806,-0.003 0.08392,-0.002 0.112787,9.3e-4 0.09604,0.0111 0.185959,0.0477 0.255895,0.10419 0.02265,0.0183 0.06325,0.0606 0.07796,0.0812 0.05347,0.0749 0.08491,0.15354 0.09907,0.24771 0.0053,0.0354 0.0072,0.0662 0.0072,0.11732 -6.4e-5,0.15393 -0.01946,0.28778 -0.05905,0.40757 -0.05766,0.17444 -0.150119,0.30774 -0.266424,0.38411 -0.02526,0.0166 -0.07581,0.0422 -0.101083,0.0513 -0.03844,0.0138 -0.0789,0.0218 -0.118563,0.0235 -0.03057,10e-4 -0.03087,10e-4 -0.03087,-0.0182 0,-0.0102 8.14e-4,-0.0151 0.003,-0.0185 l 0.003,-0.005 0.0102,0.003 c 0.0086,0.002 0.01341,0.002 0.03054,7.6e-4 0.05285,-0.005 0.08607,-0.0226 0.131386,-0.0693 0.03223,-0.0332 0.05166,-0.0609 0.07605,-0.10827 0.0494,-0.096 0.08197,-0.21064 0.09849,-0.34667 0.0089,-0.0731 0.0089,-0.0744 0.0089,-0.202 0,-0.12559 -2.96e-4,-0.13276 -0.0081,-0.19936 -0.02697,-0.22932 -0.100099,-0.36351 -0.219138,-0.40211 -0.02523,-0.008 -0.04197,-0.0105 -0.0753,-0.0106 -0.03604,-3e-5 -0.05197,0.003 -0.07737,0.0149 -0.0668,0.0313 -0.114614,0.09 -0.143011,0.17545 -0.02426,0.073 -0.02703,0.12087 -0.03029,0.52397 -0.0033,0.41256 0.0017,0.53989 0.02332,0.58583 0.008,0.017 0.03069,0.0333 0.05726,0.0412 0.016,0.005 0.01913,0.008 0.01791,0.0189 -6.83e-4,0.006 -0.0023,0.01 -0.0064,0.0137 l -0.0055,0.006 h -0.02158 c -0.01187,0 -0.04016,-0.001 -0.06286,-0.002 -0.0227,-0.001 -0.07073,-0.002 -0.106736,-0.003 -0.0579,-7e-5 -0.07123,4.4e-4 -0.115425,0.005 -0.02748,0.003 -0.05152,0.005 -0.05341,0.005 -0.0021,0 -0.0041,-0.002 -0.0052,-0.005 z"
       style="fill:#ed5353;fill-opacity:1;stroke:#7e8087;stroke-width:0.0001235;stroke-linecap:round;stroke-linejoin:round;stroke-miterlimit:1.5;stroke-dasharray:none;stroke-dashoffset:0;stroke-opacity:1" />
    <path
       style="fill:none;stroke:#7e8087;stroke-width:0.07046082;stroke-linecap:butt;stroke-linejoin:miter;stroke-miterlimit:4;stroke-dasharray:1.69105969, 0.07046082;stroke-dashoffset:0;stroke-opacity:1"
       d="M 8.5669469,118.8533 H 10.610311"
       id="path4658"
       inkscape:connector-curvature="0" />
    <path
       inkscape:connector-curvature="0"
       id="path4662"
       d="M 8.5638329,118.42978 H 10.607197"
       style="fill:none;stroke:#7e8087;stroke-width:0.07046082;stroke-linecap:butt;stroke-linejoin:miter;stroke-miterlimit:4;stroke-dasharray:0.21138246, 0.07046082;stroke-dashoffset:0;stroke-opacity:1" />
    <path
       style="fill:none;stroke:#7e8087;stroke-width:0.07046082;stroke-linecap:butt;stroke-linejoin:miter;stroke-miterlimit:4;stroke-dasharray:0.56368656, 0.14092164, 0.07046082, 0.14092164;stroke-dashoffset:0;stroke-opacity:1"
       d="M 8.5420359,119.27525 H 10.585399"
       id="path4664"
       inkscape:connector-curvature="0" />
    <path
       inkscape:connector-curvature="0"
       id="path4666"
       d="M 8.5420359,119.69874 H 10.585399"
       style="fill:none;stroke:#7e8087;stroke-width:0.07046082;stroke-linecap:butt;stroke-linejoin:miter;stroke-miterlimit:4;stroke-dasharray:0.84552984, 0.07046082;stroke-dashoffset:0;stroke-opacity:1" />
  </g>
</svg>
